<svg xmlns="http://www.w3.org/2000/svg" xmlns:xlink="http://www.w3.org/1999/xlink" id="Layer_1" x="0px" y="0px" viewBox="0 0 1920 265" style="enable-background:new 0 0 1920 265;" xml:space="preserve">
<style type="text/css">
	.st0{fill:none;stroke:#1e1e1e;stroke-width:0.5;stroke-linecap:round;stroke-linejoin:round;stroke-miterlimit:10;}
</style>
<g>
	<g>
		<path class="st0" d="M906.6,193.6c0.2,16-26,15.6-27.4,37.7c-0.8,12,10.7,22.3,20.4,17.2"></path>
		<path class="st0" d="M944.9,242.8c-3.7,6-10.9,12.6-20.5,15.3c-21.2,6-28.5-17.5-7.4-23.5c9.6-2.7,17.4,0.6,26.3,4.1    C945.9,239.8,946,241.1,944.9,242.8L944.9,242.8z"></path>
		<path class="st0" d="M904.7,251.4c-6.3-2.2-12.4-8.8-12.4-19.8c0-11.3,5.6-16.1,10.3-20.6c4.1-3.9,4-6.4,4-11.8v-5.7    c0-4.1,6.4-4.1,6.5,0v5.9c0,6.9-1,6.4,3.7,11.6c4.3,4.6,9,9.5,9,20.7c0,0.7,0,1.4-0.1,2.1"></path>
		<path class="st0" d="M913.1,193.6c0.9,16.8,24.6,15.2,26,37.4c0.1,2.1-0.1,4.1-0.6,6"></path>
		<path class="st0" d="M929.9,247.1c-2.3,3.7-6.6,6.6-14.3,5.8"></path>
		<path class="st0" d="M903.5,219.4c-2.2,2.4-5,9.2-3.1,16.7"></path>
	</g>
	<g>
		<path class="st0" d="M896.9,127.6c-2.2,0.3-4.4-0.3-6.3-1.8c-3.8-3-4.4-8.4-1.5-12.2c2.9-3.8,8.4-4.5,12.1-1.5    c1.8,1.4,2.9,3.4,3.2,5.5"></path>
		<path class="st0" d="M924.6,132c1.8,0.1,3.5,0.7,5,1.8c3.8,3,4.4,8.4,1.5,12.2c-2.5,3.3-7,4.2-10.6,2.5"></path>
		<path class="st0" d="M898.4,131.3c-2.1-3.1-2.2-7.3,0.2-10.4c2.9-3.8,8.4-4.5,12.1-1.5c3.8,3,4.4,8.4,1.5,12.2    c-0.5,0.7-1.1,1.2-1.7,1.7"></path>
		<path class="st0" d="M914,125.5c2.5-0.6,5.2-0.1,7.4,1.6c3.8,3,4.4,8.4,1.5,12.2c-1,1.3-2.3,2.2-3.7,2.8"></path>
		<path class="st0" d="M912.1,138.1c1.8,0,3.7,0.6,5.3,1.8c3.8,3,4.4,8.4,1.5,12.2c-2.4,3.1-6.5,4.1-10,2.7"></path>
		<path class="st0" d="M894.8,138c0.1-1.7,0.7-3.5,1.8-5c2.9-3.8,8.4-4.5,12.1-1.5c3.8,3,4.4,8.4,1.5,12.2c-1,1.3-2.2,2.2-3.6,2.7"></path>
		<path class="st0" d="M885.8,137.8c-2.5-3.1-2.6-7.5-0.1-10.8c0.9-1.2,2.1-2.1,3.4-2.7"></path>
		<path class="st0" d="M894,150.6c3.8,3,4.4,8.4,1.5,12.2c-2.9,3.8-8.4,4.5-12.1,1.5c-3.8-3-4.4-8.4-1.5-12.2    C884.8,148.3,890.3,147.6,894,150.6L894,150.6z"></path>
		<path class="st0" d="M898.7,144.1c-0.3-2.2-1.4-4.2-3.2-5.6c-3.8-3-9.2-2.3-12.1,1.5c-2.5,3.2-2.4,7.6,0,10.7"></path>
		<path class="st0" d="M892.4,149.6c0.3-0.8,0.7-1.6,1.3-2.4c2.9-3.8,8.4-4.5,12.1-1.5c3.8,3,4.4,8.4,1.5,12.2    c-2.5,3.3-7,4.2-10.5,2.5"></path>
		<path class="st0" d="M915.8,125.2c3-3.6,8.1-17.3,6.3-23.4c-0.8-6-7.5-4.3-7.3-0.1c0.6,4.8,0.9,12-3.2,18.5"></path>
		<path class="st0" d="M921.4,112.3c11.2,5.6,18.7-4.4,23.3,15.2c-8.1,1.5-19-0.5-24.3-11.7"></path>
	</g>
	<g>
		<path class="st0" d="M903.8,29.9c-1.8-8.1-6.4-12.5-11.8-16.3c7.1-0.9,17.9,4.1,19.6,16.3"></path>
		<path class="st0" d="M923.3,30.1c0.5-4.6,2.8-9.7,9.4-14.1c-10.4-1.7-15.7,4.7-18.3,13.8"></path>
		<path class="st0" d="M907.9,20.8c-0.2-7.1-3-11.8-6.4-13.6c10.6-0.8,15.8,4.7,16.5,14.8"></path>
		<path class="st0" d="M924.1,16.8c0.3-3.6,1.3-8.1,6.5-11.3c-5.9-0.1-12.5,3.2-14.3,8.9"></path>
		<path class="st0" d="M894.4,46.1c2.3-0.5,4.1-2.3,5-3.8c0.9,1.9,2.6,3.2,4.7,4.2"></path>
		<path class="st0" d="M905.7,29.8l16,0.2c6.1,0.1,11,5.1,10.9,11.2l-0.3,22c-0.1,6.1-5.1,10.9-11.2,10.9l-16-0.2    c-6.1-0.1-11-5.1-10.9-11.2l0.3-22C894.6,34.6,899.6,29.7,905.7,29.8L905.7,29.8z"></path>
		<path class="st0" d="M894.3,59.6c2.7-0.8,4.1-2.3,5-3.8c0.9,1.9,2.6,3.2,4.7,4.2"></path>
		<path class="st0" d="M922.9,46.2c2.3-0.5,4.1-2.3,5-3.8c0.9,1.9,2.6,3.2,4.7,4.2"></path>
		<path class="st0" d="M922.7,59.8c2.7-0.8,4.1-2.3,5-3.8c0.9,1.9,2.6,3.2,4.7,4.2"></path>
		<path class="st0" d="M908.6,40.5c2.3-0.4,4.1-2.2,5-3.6c0.9,1.8,2.6,3,4.7,3.9"></path>
		<path class="st0" d="M908.5,53.2c2.7-0.7,4.1-2.2,5-3.6c0.9,1.8,2.6,3,4.7,3.9"></path>
		<path class="st0" d="M908.2,66c2.7-0.7,4.1-2.2,5-3.6c0.9,1.8,2.6,3,4.7,3.9"></path>
	</g>
</g>
<g>
	<g>
		<path class="st0" d="M804.9,190.5c1.2,1.3,3.1,5.2,2.2,8.7"></path>
		<path class="st0" d="M813.3,206.8l-0.2-1.4c-0.5-3.3-1-5.7-6-6.3c-4.7-0.5-5.8,1.8-7,4.8c-1.2,3-2,4.4-6.5,9.3    c-27.9,30.4,0.8,54.7,23.8,41.3"></path>
		<path class="st0" d="M810.6,221.3c0.5,12.4-3.7,22.8,6.1,32.6c12.6,12.6,34.9,2.3,32.7-14.9c-2.1-17.2-16-17.7-23.8-25.1    c-4.8-7.1-7.6-9.2-11.5-7.3c-0.8,0.3-2,0.9-2.5,1.2C806.9,210.8,810.4,216.7,810.6,221.3L810.6,221.3z"></path>
		<path class="st0" d="M820.6,243.1c-2.8-5.2-1.3-11.4,3.4-13.9c4.7-2.5,10.8-0.3,13.6,4.9c2.8,5.2,1.3,11.5-3.4,13.9    C829.5,250.5,823.4,248.3,820.6,243.1L820.6,243.1z"></path>
		<path class="st0" d="M790.4,231.3c-2.4,8.1,0.5,15.2,6.2,17.9"></path>
		<path class="st0" d="M832.3,242.2c0.7-1,1.1-3.3,0.5-5.2"></path>
	</g>
	<g>
		<path class="st0" d="M792.4,130.7c-4-6.4,4-11.5,7.8-7.6"></path>
		<path class="st0" d="M807.8,115.5c-3.9-4,1-10.8,6.5-8.6"></path>
		<path class="st0" d="M801.8,127.8c-5.3-5.9,3.3-16.4,10.7-10.7"></path>
		<path class="st0" d="M795.9,121.9c-2.4-3.2-2.4-7.3,0.5-10.2s7.6-2.9,10-0.4"></path>
		<path class="st0" d="M797.4,137.5c-3.2-5.7,2.7-12.3,8.1-8.7"></path>
		<path class="st0" d="M807.3,133.5c-6-6.5,4.3-17,11.6-9.7"></path>
		<path class="st0" d="M802.5,143.6c-3.3-6.3,3.8-13.3,11-9.1"></path>
		<path class="st0" d="M820.2,129.1c-4-5.2,1-13.1,8.6-10.4"></path>
		<path class="st0" d="M813.7,140.2c-1.1-2.7-1.1-6.3,2.1-9.2c2.7-2.5,6.7-2.2,9.3-0.9"></path>
		<path class="st0" d="M787.5,122.8c-3.4-5,2.5-10.9,6.8-7"></path>
		<path class="st0" d="M800.9,109.5c-3.7-3.8,1.3-10.5,6.9-6.8"></path>
		<path class="st0" d="M790.6,114.6c-4.8-5.8,2-13.9,9.2-9.3"></path>
		<path class="st0" d="M838.4,161.7c-2-2.5-11.1-15.5-12.7-23.5c-2.5-12.4,4-22.8,9.7-27.4c3.5-2.8,3-1.3,3.1,1.1    c0.2,3.7,1.4,11,6.4,23.5C853,155.4,838.4,161.7,838.4,161.7L838.4,161.7z"></path>
		<path class="st0" d="M826.9,142.3c-1.4-0.6-2.7-1.2-4-1.5c-12.1-2.8-22.3,2.5-26.7,8c-2.7,3.4,0,5,3,4.4c9-2,13.5,3.5,20.3,6.8    c9.8,4.8,15.5,3.9,18.8,1.6"></path>
		<path class="st0" d="M835.5,163l2.7,3.1c3,3.1,6.9-1.2,9.4-3.1c1.6-1.6,1.3-3.9-0.3-5.6l-2.1-2.2"></path>
		<path class="st0" d="M802.5,143.6c-11.5-13.4-25.9-33.7-16.5-43.1c7.6-7.6,25.3,2,42.9,18"></path>
		<path class="st0" d="M813.2,121.3c-2.9-4.7,2.7-11.8,9.3-8.3"></path>
		<path class="st0" d="M834.5,156.1c-11.1,3.6-15.9-8.3-29.2-8"></path>
	</g>
	<g>
		<path class="st0" d="M803.7,54.1c-1.4,3.7-3.4,6.4-5.5,8.5"></path>
		<path class="st0" d="M824.5,19.8c-1.8,0.9-3.8,1.6-5.8,1.8c-1.1,0.2-2.3,0.2-3.5,0.1c-5.8-0.4-10.7-4.5-12.7-9.4"></path>
		<path class="st0" d="M818.5,15.2l1.6-5.2c1.4-4.5-5.7-6.3-6.9-1.8l-1.2,4.5"></path>
		<line class="st0" x1="814.3" y1="28.8" x2="815.3" y2="21.7"></line>
		<line class="st0" x1="802.3" y1="23.8" x2="806.3" y2="17.7"></line>
		<path class="st0" d="M830.3,34.6c11,0.1,19.8,9.2,19.7,20.1c-0.1,11-9.2,19.8-20.2,19.6c-11-0.1-19.8-9.2-19.7-20.1    S819.3,34.4,830.3,34.6L830.3,34.6z"></path>
		<path class="st0" d="M831.2,34.6c-1-10.7-8.9-20-20.1-22.1c-13.5-2.6-26.2,6.3-29,19.7c-3.9,18.3,14.4,30.1,16.1,30.4    c0.8,0.2,5.7,0.2,12.8-2.2"></path>
		<path class="st0" d="M830.2,43.2c1.7,0,3.3,0.4,4.7,1.1c2.1,1,2.5,0.5,4.9,0.1c-0.4,2.1-1,2.7,0.1,4.4c1,1.7,1.6,3.7,1.6,5.9    c-0.1,4.9-3.3,9.1-7.7,10.6c-1.2,0.4-2.4,0.6-3.8,0.6c-6.3-0.1-11.3-5.2-11.2-11.5C818.8,48.1,824,43.1,830.2,43.2L830.2,43.2z"></path>
		<path class="st0" d="M818.5,15.2c4.4,1.2,6.2-0.2,7.3-2.5c1-2.2,2.9-1.9,5.6-1.6c2.6,0.3,4.1-2,4.7-2.9"></path>
	</g>
</g>
<g>
	<g>
		<path class="st0" d="M739.1,207.1c10.2,3.1,16.4,12.8,13.9,21.6c-0.3,1.2-0.8,2.3-1.4,3.3c-7.3-0.6-14.6-2.2-21.9-4.8    c-4.7-1.6-9.4-3.7-14.1-6.1c0-1.2,0.2-2.4,0.6-3.6C718.6,208.7,728.9,204,739.1,207.1L739.1,207.1z"></path>
		<path class="st0" d="M718,222.4c-6,0.3-12.3-0.1-19.6-1.7c-1.2-0.3-4.3-3.3-4.3-3.3s-3.5,2.6-4.6,2.5c-1.3-0.1-2.6-0.3-4-0.5    c-0.4-1.7-0.6-3.4-0.6-5.1c0-13.1,12.2-23.7,27.3-23.7c12.1,0,22.3,6.8,25.9,16.3"></path>
		<path class="st0" d="M729.6,227.2c-0.5,6.5-3.3,8.4-6.6,11.2c-7.2,4.5,6.1,15.3,10.6,3.3c1.6-4.3,1.7-6.1,2.3-12.5"></path>
		<path class="st0" d="M705.1,222.1c2,10.3-1.4,13.5-4.9,19.4c-8.4,10.4,14.8,21,16.5,0.1c0.3-4.2,0.3-6.9-0.1-10.3    c-0.1-0.8-0.1-3.6-2-8.7"></path>
		<path class="st0" d="M695.4,205.2c2.8-4.2,7.5-7,13.3-7.6"></path>
	</g>
	<g>
		<path class="st0" d="M724.7,115.9c-0.1-0.1-6,5-12.7-0.8c-1,6.8-7.8,7.5-7.7,7.6"></path>
		<path class="st0" d="M712.8,107.5l-1.4-6.6c-1.3-5-7.9-3.3-5.9,2.5l1.9,6.2"></path>
		<path class="st0" d="M720,138c-2.5-2.8-6-8.5-7.6-12.3"></path>
		<path class="st0" d="M751,157.1c-14,6.8-32.8,7.1-50-1.5c-14.7-6-4.9-23.2,7-17c14.4,8.4,26.3,12.4,36.3,14.2    c2.2,0.4,4.3,0.7,6.4,0.9C755.3,154.3,753.2,156,751,157.1L751,157.1z"></path>
		<path class="st0" d="M747.6,158.6c1.5,1.8,3,3.6,4.5,5.1c2.6,2.6,0.1,2.8-4.5,1.5c-3.3-1-6.6-2.3-9.8-3.9 M715.5,142.8    c-4.1-5.2-7.6-11.2-10.3-17.9c-8.3-16.9,14-24.3,19.6-9.6c5.4,16.4,11.8,28.2,18.2,37.3"></path>
		<path class="st0" d="M707.4,138.5c-0.1,0-1,6.5-8.5,6.6c3.2,4.8-0.7,9.1-0.6,9.1"></path>
		<path class="st0" d="M696.6,139.7l-5.7-4.7c-4.4-3.6-8.8,2.9-3.2,6.1l6.1,3.2"></path>
	</g>
	<g>
		<path class="st0" d="M718.9,69l0.4-32.7l0.1-7.7c0.1-6.2-10.4-6.7-16.4,0.4c-11.1,13.2-4.4,38.4,9.1,44.8    C717.1,76,718.9,70.6,718.9,69L718.9,69z"></path>
		<path class="st0" d="M710.8,72.9l-5.2-0.1c-24.5-0.3-27.9-51.5,5.2-48.7"></path>
		<path class="st0" d="M724.3,23.9l2.2-7.9c2.7-7.9-9.2-10.7-10.7-2.4L715.7,24"></path>
		<path class="st0" d="M725.9,18.3c1.4,1.4,3.8,2.6,7.3-1.5c3.5-4,9-9.5,12.6-5.4c3.7,4.1-1.3,10-6.1,5.3"></path>
		<path class="st0" d="M698.8,25.9c-0.3-4.3-2.2-6.3-5.1-7.8c7.4-0.3,7.1-4,6.1-10.8c4.1,4.8,6,5,7.1,4.7c1.5-0.4,2.2-1.2,3-6.4    c1.2,3.2,3.9,6.9,6.3,6.9"></path>
		<path class="st0" d="M707.5,17.6c2.5,2.2,3.8,4.2,4,6.3"></path>
		<path class="st0" d="M718.9,69l0.4-32.7l0.1-7.7c0.1-6.2,10.6-6.4,16.4,0.8c10.8,13.5,3.4,38.5-10.3,44.5    C720.6,76,718.9,70.6,718.9,69L718.9,69z"></path>
		<path class="st0" d="M727.1,73.1l5.1,0.1c24.5,0.3,29.2-50.7-3.9-48.8"></path>
	</g>
</g>
<g>
	<g>
		<path class="st0" d="M607.4,230.5l-10.5,9.7c-12.6,11.7,2.1,20.9,6.7,17.9c5.3-3.4,12.9-9.7,17.2-13.6c2.2-1.9,6.9-2.5,9-0.7    c6.3,5.3,13.8,1.4,12.6-5c8.7,1.6,14.4-9.7,6.1-15.7c7.2,1.5,9.1-10.1,1.2-10.8c5.3-9.2-11.3-18.5-16.4-6c-2.8-5-10-4.5-12.2,0.7    c-4.7-2.6-9.8,2.7-7,7.3C607.9,223.1,613.8,224.5,607.4,230.5L607.4,230.5z"></path>
		<path class="st0" d="M640.5,200.4c1.5-9.7-13.7-14.5-19.6-3.9c-1.3-1.5-3.2-2.4-5.3-2.4c-3.1,0.1-5.7,2.3-6.4,5.2    c-5-1.7-8.9,4.4-5.5,8.2c-5.3,9.7,3.2,11.6-2.2,18.2l-7.5,9.1c-4.8,5.9-4.5,13-1.8,17"></path>
		<path class="st0" d="M596.8,257.3l26.5-23.8l13.4-1.3c3.6-0.6,3.2-5.3-0.3-4.9l-7.4,0.8l7.4-10.5c0.9-1.7-1.3-4.2-3.4-2.2    l-8.4,9.5l-0.7-4.5c-0.3-2.8-3.6-2.5-3.7,0.1l-0.5,9.1l-27.3,22.3"></path>
	</g>
	<g>
		<path class="st0" d="M631.5,100.5c-4.3,7.3-12,8.5-20.2,5C611.2,105.5,616.3,92.5,631.5,100.5L631.5,100.5z"></path>
		<line class="st0" x1="611.2" y1="111" x2="611.3" y2="97.9"></line>
		<path class="st0" d="M604.5,156.7c-3.6-1.6-6.9-4.5-7.9-10.3"></path>
		<path class="st0" d="M614.9,134.2c-6,27.4,13.2,38.2,29.5,29.7c15.6-8.1,17.5-30.4-8-40.6c-6.7-4.8-8.9-9.5-14.6-6.1l-3.7,1.9    C612.5,121.8,615.1,128,614.9,134.2L614.9,134.2z"></path>
		<path class="st0" d="M621.8,117.1c-1.9-4.5-3.6-5.9-8.3-6l-4-0.1c-6.5-0.1-7.2,6.9-10.4,12.5c-19.1,22.4-6.6,41.8,12.7,41.9    c3.8,0,7.4-0.8,10.5-2.3"></path>
		<line class="st0" x1="631.2" y1="146.2" x2="629.4" y2="144.2"></line>
		<line class="st0" x1="638.5" y1="142.6" x2="637.6" y2="140.1"></line>
	</g>
	<g>
		<path class="st0" d="M612.7,33.3c-1.6,2.2-4.6,2.9-7.1,1.9c-0.1,7-8.1,11.1-13.8,6.8c-3.8-2.9-4.5-8.3-1.6-12.1    c0.4-0.5,0.8-0.9,1.2-1.3c-1.3-2.8-1-6.2,1-8.8c1.9-2.5,4.8-3.6,7.7-3.4c0.4-2,1.2-3.9,2.5-5.6c4.5-5.9,13-7.1,18.9-2.6    c0.4,0.3,0.8,0.6,1.1,1c3-0.7,6.3-0.1,9.1,2c2.6,1.9,4,5.1,4.3,8"></path>
		<path class="st0" d="M603.7,40.5c6.1,4.7,6.6,11,6.9,18.8c0.5,6.6,6.5,8,10.1,5.4"></path>
		<path class="st0" d="M606.1,18.4c-0.7-6.7,8.5-8.6,11.8-6"></path>
		<path class="st0" d="M613.8,65.2c1.7-2.1,2.7-8.8,1.6-11.6"></path>
		<path class="st0" d="M633.4,20.1c5.8-2.7,12.8-0.2,15.5,5.6c0.2,0.4,0.3,0.8,0.5,1.2c2.6,0.6,4.9,2.5,6.2,5.2    c1.3,2.8,1.2,5.8,0,8.2c0.4,0.4,0.7,0.8,1,1.3c0.9,1.9,0.3,4.1-1.4,5.3c0.2,0.3,0.4,0.6,0.5,1c1.7,3.7,0.1,8.2-3.6,9.9    c-3.7,1.7-8.2,0.1-9.9-3.6c-0.5-1.2-0.8-2.4-0.7-3.7c0.1-1,0.3-1.9,0.8-2.8c-2.8,0-5.4-1.6-6.6-4.3c-0.2-0.5-0.4-1-0.5-1.5    c-0.8-0.2-1.5-0.5-2.2-0.9c-0.2,0.1-0.5,0.3-0.7,0.4c-1.6,0.8-3.4,0.6-4.8-0.2c-0.5-0.3-1-0.7-1.3-1.1c-2.9,5.3-10.7,5.2-13.3-0.4    c-1.7-3.7-0.1-8.2,3.6-9.9c0.5-0.2,0.9-0.4,1.4-0.5c0.1-2.7,1.7-5.2,4.3-6.4c2.4-1.1,5.1-0.9,7.2,0.5    C630.3,22,631.7,20.9,633.4,20.1L633.4,20.1z"></path>
		<path class="st0" d="M622.1,43.4c2.8,6.1,1.7,11.5-1.3,17.6c-2.5,5,5,9,8.2,5.1c2.3-4.5,7.6-12.1,12.4-14.4"></path>
		<path class="st0" d="M633.1,27.1c2.8-4.6,8.6-2.9,10.2,0.2"></path>
		<line class="st0" x1="622.9" y1="67" x2="627.6" y2="58.2"></line>
		<path class="st0" d="M639.4,47.1c-4-0.1-7.5,3-8.8,4.9c0.5-2.4-0.2-8.7-0.8-10.1"></path>
	</g>
</g>
<g>
	<g>
		<path class="st0" d="M528,256.7c5.4-4.1,13.4,0.3,18.9-11.8c4.8-10.7,11.8-9.4,13-11.3c2-3.4-10-9.5-14.6-1.2    c-2,3.7-7.9-3.8-10.6,8.3c-1.1,4.7-12.5,1.5-10.2,12.8C524.5,254.5,526.7,257.6,528,256.7L528,256.7z"></path>
		<path class="st0" d="M554,228.4c6-2.4,7.5-6.5,5.5-12.1c-1.1-2.9,2.9-6.4-1.4-13.3c-2.3-3.8-5.9-1.9-9.3-6.2    c-4.3-5.6-10.2-1.7-14.1-5c-2-1.7-7-1.1-9.5-0.1c-1.7,0.7-5.5,0.8-5.4,2.7c0,0.5,0.9,1.7,0.3,3.8"></path>
		<path class="st0" d="M524.4,253.5c-31.6,4.9-39.1-33.2-27.4-50.6c3.8,0.1,12.7,2.3,6,14.4c5.8,1,2.4,5.8,2.9,10.3    c0.2,2.2,0.4,5.3,2.1,7.2c1.7,1.8,4.1,2.8,7.8,1.2c4.7-2,11.8,1.6,9.9,10.4"></path>
		<path class="st0" d="M552.2,228.3c0.2-1.1,0.2-2.3,0.2-3.5c0-14.9-12.1-27-27.1-27c-8.2,0-15.5,3.6-20.4,9.3"></path>
		<path class="st0" d="M519.8,194.2c-4.1-4.2-6.7,0.5-9.3-1.8c-8.1-7-9.8,7-8.3,11.8"></path>
		<path class="st0" d="M535.9,209.3c-16.3,4.1-19.8,19.2-20.2,26.2"></path>
		<polyline class="st0" points="525.3,206.5 525.7,214.3 534.3,215.4   "></polyline>
		<polyline class="st0" points="515.6,216.2 518,225.1 526.2,226   "></polyline>
	</g>
	<g>
		<path class="st0" d="M528.9,135.9l-8-17.2l-4.5,14.1 M510.9,131.9c0.3-3.2,8.8-24.2,10.4-28.3c2.1-5.3,9.2-2.1,6.1,3    c-0.6,1-1.1,2.2-3.1,7.7c0.1,0.1,8.4,18.8,9.7,20.7"></path>
		<path class="st0" d="M526,109.6c0.3-0.8,11.1-10.9,28-2c6.7,3.5,2.1,6.1,0.5,6.9c-8.4,4.1-21.1,9.4-30.3-0.2"></path>
		<path class="st0" d="M519.4,108.2c-2-6-3-11.6-18.8-10c0.1,13,6.9,16.7,16.4,14.7"></path>
		<path class="st0" d="M524.8,112.9c6.1-1,10-2.3,21.6-1.7"></path>
		<path class="st0" d="M501.1,144.4c0.1-2,0.8-4.7,3-6.3"></path>
		<path class="st0" d="M524.5,152.2c-0.5-2.2-0.6-5.5,1.3-8"></path>
		<path class="st0" d="M531.8,136.1c19.5-11.3,28.1,24.8,11.2,28.1l-11.3,2.2C514.8,169.6,509.5,132.8,531.8,136.1L531.8,136.1    L531.8,136.1L531.8,136.1z"></path>
		<path class="st0" d="M512.3,132.7c-16.6-10.2-24.9,20.7-10.3,24l8,1.8c3.1,0.7,5.9-0.2,8.1-2c-2.4-7-1.3-15.7,4.8-19.2    C521.3,134.1,517.9,132,512.3,132.7L512.3,132.7L512.3,132.7L512.3,132.7z"></path>
	</g>
	<g>
		<path class="st0" d="M536.7,27.7c-4.7-4.3-12.3-5.6-18.2-1.2c-7.8,5.8-21.5,26-25.6,38.2c-3.3,10,0.5,11,9.2,7.4    c12.8-5.3,33.7-20.3,37.6-26.1C544.4,39,541.8,32.3,536.7,27.7L536.7,27.7z"></path>
		<path class="st0" d="M541.6,35l11-9.3c9.6-8.1-4.5-21.4-13-12L530,24.1"></path>
		<line class="st0" x1="537.3" y1="28.3" x2="544.2" y2="21.4"></line>
		<path class="st0" d="M541.4,42.8c10.6-6.7,13.9-0.3,15.1-0.9c6.5-3.6,4.4-14.9-4-16.2"></path>
		<path class="st0" d="M521.9,24.6c4.6-5,3.6-12.3,1-15c3.3-6.9,16.7-4.6,16.7,4"></path>
		<path class="st0" d="M527.2,43.2c3.3,3.2,5.3,4.8,10.2,5.6"></path>
		<path class="st0" d="M509.2,37.4c1.3,4.1,4.1,5.9,6.5,8.1"></path>
		<path class="st0" d="M506.5,59.9c2.2,2.3,3.7,3.9,7.2,6.2"></path>
	</g>
</g>
<g>
	<g>
		<path class="st0" d="M422.5,199.1c5.8,0.1,10.5,3,10.4,6.4c0,3.5-4.8,6.2-10.6,6.1s-10.5-3-10.4-6.4    C411.9,201.8,416.7,199,422.5,199.1L422.5,199.1z"></path>
		<path class="st0" d="M418.8,199.4l0.1-5.6c0-4.7,6.7-4.1,6.6-0.1l-0.1,5.7"></path>
		<path class="st0" d="M414.3,209.3c-15.5,3.5-14.8-14.4,3.3-9.6"></path>
		<path class="st0" d="M440.3,208c2.9,3,4.9,6.3,6.1,10.3 M423,249.8c-0.3,0-0.6,0-0.9,0c-13.8-0.2-24.8-11.3-24.6-24.9    c0.1-6.5,3-12.6,7.2-17"></path>
		<path class="st0" d="M440.4,238.4l0.1-10.4c0.1-4.9-10.3-3.8-7.4,2.9"></path>
		<path class="st0" d="M440.7,228c0.1-4.9,10.4-3.5,7.3,3.1l-7.4,7.2"></path>
		<path class="st0" d="M440.4,248.8c-0.1,4.9-10.4,3.5-7.3-3.1l7.4-7.2"></path>
		<path class="st0" d="M440.4,238.4l-0.1,10.4c-0.1,4.9,10.3,3.8,7.4-2.9"></path>
		<path class="st0" d="M450.9,238.6c4.9,0.1,3.5,10.4-3.1,7.3l-7.2-7.4"></path>
		<path class="st0" d="M440.4,238.4l10.5,0.1c4.9,0.1,3.8-10.3-2.9-7.4"></path>
		<path class="st0" d="M440.4,238.4l-10.2-0.1c-4.9-0.1-3.9,10.4,2.9,7.4"></path>
		<path class="st0" d="M430.2,238.3c-5.4-0.1-3.5-10.4,3.1-7.3l7.2,7.4"></path>
		<path class="st0" d="M430.4,209.5c15.4,4,15.1-14-3.1-9.6"></path>
		<path class="st0" d="M440.9,217.5c11.5,0.2,20.8,9.6,20.6,21.2c-0.2,11.6-9.6,20.8-21.2,20.7c-11.5-0.2-20.8-9.6-20.6-21.2    C419.8,226.6,429.3,217.3,440.9,217.5L440.9,217.5z"></path>
	</g>
	<g>
		<path class="st0" d="M413.2,106.6l0.1-6c0-3.6,5.6-3.6,5.5,0.1l-0.1,6"></path>
		<path class="st0" d="M442.2,122.6c-2.5,1.7-15.7,1.3-26.3,10.6c-11.8,10.3-7.6,26.2-5.7,28.5c2.1,2.5,16.6,9.8,29.1-0.9    c10.9-9.3,11.7-22.8,13.9-25.2C460.7,127.7,451.2,116.3,442.2,122.6L442.2,122.6z"></path>
		<path class="st0" d="M430.4,125.6c-2.7-5.4-5.8-9.1-6-10.9c-1.1-10.9-16.1-11.3-17.2-0.2c-0.3,3-9.4,12.8-9.4,27    c0,14.1,11.9,21.5,16.6,23"></path>
		<path class="st0" d="M435.7,150.9c6.9-5.9,10.1-13.5,7-17.1c-3-3.6-11.1-1.7-18,4.2c-6.9,5.9-7.5,16.4-7,17.1    C418.1,155.7,428.7,156.7,435.7,150.9L435.7,150.9z"></path>
		<path class="st0" d="M452.1,122.2l4.2-3.5c3.1-2.9,6.8,1.8,3.9,4.1l-4.6,3.8"></path>
		<line class="st0" x1="428" y1="149" x2="428.7" y2="148.6"></line>
		<line class="st0" x1="425.4" y1="145.6" x2="425.9" y2="144.9"></line>
		<line class="st0" x1="432.7" y1="145.4" x2="433.4" y2="144.9"></line>
		<line class="st0" x1="429.5" y1="141.5" x2="430.2" y2="141"></line>
		<line class="st0" x1="434.1" y1="138.6" x2="434.9" y2="138.2"></line>
		<line class="st0" x1="437" y1="141.8" x2="437.6" y2="141.2"></line>
	</g>
	<g>
		<path class="st0" d="M425.6,23.3c2,9.1,12.2,15.1,23,20.3c16.4,7.9,14.8,28.8-0.1,30.9c-8.5,1.2-16.3-2.1-24.1-8.4    c-11.2-9.2-20.1-21.8-21.1-36.7"></path>
		<path class="st0" d="M414.2,22.8c1.6,4.8,8.1,2.9,6.5-1.7c2.6,4,6.3,2.4,7.3-0.4c1.4-3.9-2.7-7.6-6.9-5.1    c-4.8-6.8-17.2-3.8-17.7,4.4c-7.4,1.8-5.1,10,0,9.2c1.8-0.3,3.7-2.5,3.2-4.4C408.4,30,415.8,28.2,414.2,22.8L414.2,22.8z"></path>
		<path class="st0" d="M413.6,11.8l-1.3-4.2c-1.3-3.7-7.9-1.8-6.6,2l1.4,4.1"></path>
		<path class="st0" d="M430.4,60.1c-11.5-7.4-16.8-18.4-19-24.7"></path>
	</g>
</g>
<g>
	<g>
		<path class="st0" d="M322.2,256.5l-2.2,0c-4.4-0.1-10.5-1.6-10.2-10.9c0.3-11.6-4.1-11.9-6.3-21.9c-2.2-10,4.3-23.9,16-23.7    l5.3,0.1"></path>
		<path class="st0" d="M329.8,199.8l0.1-5.9c0.1-4.6,7.8-4.5,7.8-0.1l-0.1,6.2"></path>
		<path class="st0" d="M324.4,228.8c-2.5-6.6-1.7-13.7,0.3-18.7"></path>
		<path class="st0" d="M323.4,200.7c1.9-1.2,5.7-1.3,8-0.2c1.2,0.6,1.7,0.5,3.1,0c2.3-0.8,5.7-0.8,7.5,0.4c12.6,8.3,8.4,30.6,3.9,39    c-2.2,4.2-3,4.8-3.1,11.3c-0.1,4.8-0.9,7.7-6.2,7.7l-4.6-0.1l-4.6-0.1c-4.8-0.1-6-2.4-5.9-6.4l0.1-3.9c0-3.5-1.3-5.6-3-8.9    C314.2,231.1,310.6,208.7,323.4,200.7L323.4,200.7z"></path>
		<path class="st0" d="M341.6,256.8l3.2,0c4.4,0.1,10.5-1.4,10.5-10.6c0-11.6,4.4-11.8,6.8-21.7c2.4-9.9-3.7-24-15.4-24.1l-6.5-0.1"></path>
	</g>
	<g>
		<path class="st0" d="M357.8,154.7c21.5-19.9-6.5-42.1-19.4-26.3c-10.9,13.4-17.1,12.3-22.2,12.2c-6.6-0.2-9.3,4.7-6.2,11.1    C317.6,167.5,343.7,167.8,357.8,154.7L357.8,154.7z"></path>
		<path class="st0" d="M352.7,123.4c5.4-23-27.1-28.1-32.3-9.6c-4.9,17.6-11.2,16.7-16.3,18.5c-6.5,2.4-7.9,9.2-1.6,13.2    c2.1,1.4,4.2,2.4,6.5,3.2"></path>
		<path class="st0" d="M319.2,152.5c5.8,6.3,18.4,5.2,24.2,3"></path>
		<path class="st0" d="M359.2,126.5l2.9-4c2.9-3.9,6.7,0,4.5,3.1l-3.8,4.7"></path>
		<path class="st0" d="M344.6,104.5l3.7-5.1c2.7-3.7,7,0.3,4.5,3.1l-3.9,5.1"></path>
	</g>
	<g>
		<path class="st0" d="M346.6,68.5c-4-2.1-4.2-7.2,0.4-9"></path>
		<path class="st0" d="M317.7,16.9l1.2,2.9l-18.2,9.3l-1.6-4.6c-0.9-2.7,0.2-5.6,2.8-6.7l9.1-3.7C313.6,13,316.6,14.3,317.7,16.9    L317.7,16.9z"></path>
		<path class="st0" d="M300.6,29.1c1.9,26.9,21.4,48.8,45.1,40.2c0.4-0.2,0.9-0.3,1.3-0.5c5-2.5,4.1-6.2,2.6-7.8    c-0.9-0.9-2.2-1.4-3.6-2.1c-16.1-7.5-24.2-13.5-35.7-34.8"></path>
		<path class="st0" d="M344.5,58.2c4-0.4,7.9-1.6,11.5-3.8c4.5-2.4,5.8-6.9-1.3-8.8c-16-3.1-29.4-9.2-40.6-23.5"></path>
		<path class="st0" d="M355.3,45.8c3-1.2,5.8-2.9,8.3-5.3c3.7-3.5,5.9-9.3-1.2-9.2c-16.5,0.2-25.6-0.5-43.6-11.5"></path>
		<path class="st0" d="M302.4,17.6l-2-7.1c-0.5-1.7,0.6-3.5,2.4-3.9l3.8-0.9c1.7-0.4,3.5,0.6,3.9,2.4l1.4,5.8"></path>
		<path class="st0" d="M322.9,55c-11.4-9.2-15.8-21.4-17.4-28.3"></path>
		<path class="st0" d="M355.8,54.6c-3.8-1.8-3.4-6.7-0.4-8.8"></path>
		<path class="st0" d="M363.4,40.7c-4.5-0.6-6.2-7.7-2-9.5"></path>
	</g>
</g>
<g>
	<g>
		<path class="st0" d="M239.2,208.7c12,0.2,21.7,9.9,21.5,21.6c-0.2,11.8-10,21.2-22.1,21.1c-12-0.2-21.7-9.9-21.5-21.6    C217.3,218,227.2,208.5,239.2,208.7L239.2,208.7z"></path>
		<path class="st0" d="M217.3,231.9c-4.6-3.2-7.9-7.6-9.3-12.6c-3.1,0-6-1.2-5.9-4.9l0-1.7c0-3.7,3-4.7,6.1-4.7    c3.3-10.2,14.9-17.7,28.7-17.5c13.8,0.2,25.2,8,28.2,18.4c3,0,5.7,1.4,5.6,4.9l0,1.7c0,3.4-2.7,4.8-5.8,4.7    c-0.9,2.7-2.3,5.2-4.2,7.5"></path>
		<path class="st0" d="M224.5,199.6c4.7-2.8,10.7-3.6,16.5-2.4"></path>
		<path class="st0" d="M239,226.8c1.8,0,3.2,1.5,3.2,3.3c0,1.8-1.5,3.2-3.3,3.2c-1.8,0-3.2-1.5-3.2-3.3    C235.7,228.2,237.2,226.8,239,226.8L239,226.8z"></path>
		<path class="st0" d="M239.5,226.5l0.1-11c-1.3-1.4-9-0.5-10.4,4.1"></path>
		<path class="st0" d="M241.3,227.8l8.1-7.9c-0.9-3.5-6.8-6.2-10.3-4.4"></path>
		<path class="st0" d="M242.7,229.9l10.8,0.1c1.6-4-0.7-9-4.2-10.4"></path>
		<path class="st0" d="M241.2,232.3l7.9,8.1c3.2-1.2,5-5.1,4.4-10.2"></path>
		<path class="st0" d="M239.4,233.1l-0.2,11.5c4.8,1.2,9.1-0.6,10.4-4.1"></path>
		<path class="st0" d="M236.7,231.9l-8.1,7.9c1.6,3.8,6.1,5.3,10.2,4.4c0,0,0.5,0,0.5,0"></path>
		<path class="st0" d="M236.1,229.8l-11.7-0.2c-1,4.6,0.6,8.3,4.2,10.4"></path>
		<path class="st0" d="M236.7,227.7l-4.9-5l-3-3.1c-3.5,0.6-6.1,5.6-4.4,10.2"></path>
	</g>
	<g>
		<path class="st0" d="M249,116.2c-41.4-36-51.3,38.3-41.3,47C221.3,175,287.2,149.5,249,116.2L249,116.2z"></path>
		<line class="st0" x1="245.1" y1="147.7" x2="247.3" y2="146"></line>
		<line class="st0" x1="236.9" y1="139.6" x2="238.9" y2="137.7"></line>
		<line class="st0" x1="220.4" y1="126.8" x2="221.8" y2="124.3"></line>
		<line class="st0" x1="228.7" y1="132.6" x2="230.4" y2="130.3"></line>
		<line class="st0" x1="232.9" y1="151.6" x2="235.1" y2="149.8"></line>
		<line class="st0" x1="225.8" y1="145.1" x2="227.5" y2="143"></line>
		<line class="st0" x1="218.2" y1="138.8" x2="219.9" y2="136.5"></line>
		<line class="st0" x1="221.2" y1="155.9" x2="223.4" y2="154.2"></line>
		<line class="st0" x1="214.6" y1="150" x2="216.2" y2="147.7"></line>
		<path class="st0" d="M259.1,144.1c-0.9-9.2-5.1-14.5-6.9-16c1,3.9-1.2,7-3.1,8c-0.3-4.7-1.5-8.5-4.2-10.4c-3.8,1.9-6.8,2.7-7,2.6    c-0.2-0.4,0.3-4.9,1.5-7.4c-2.3-2.4-6.6-2.6-11.2-2.3c0.8-2,3.4-5,7.8-4.4c-2.7-3.3-9.9-5-18.9-3.4"></path>
		<path class="st0" d="M245.2,102.5c-1.5-2.1-5.2-3.6-7.8-3.9c-0.5,2.6-0.4,6.9,1.3,10.5"></path>
		<path class="st0" d="M249,116.2c4.6-6.9,12.8-9.2,19-1.6c-3,2.9-7.2,7.3-13.6,6.9"></path>
		<path class="st0" d="M254,111.3c1.9-4.7,0.6-9.9-5.2-13.4c-3.2,2.4-6.2,8.1-4.9,14.4"></path>
		<path class="st0" d="M263.2,118.8c2.3,1.2,4.7,4.4,5.4,7c-2.6,0.9-6.9,2-10.8,0.5"></path>
		<path class="st0" d="M251.8,118.9c0.8-1,2.9-2.6,5-3.1"></path>
		<path class="st0" d="M245.9,113.7c1.1-1.2,1.9-2.9,2.5-5"></path>
	</g>
	<g>
		<path class="st0" d="M228.4,64.3c-12.6-3.6-16.7-15.9-16.2-20.4"></path>
		<path class="st0" d="M224.8,22c-3.7,2.5-5.4,8.7-4.6,11c3.6-3.6,7.3-6,11-5.6c-0.3,5.3,0.6,9.7,5.1,12.7c4.6-2.9,5.7-7.2,5.5-12.5    c3.7-0.3,7.3,2.2,10.8,5.9c0.9-2.3-0.7-8.5-4.3-11.1c4.2,0.1,7.2,0.8,10.7,2.3c1,0.5,2,1,3,1.5c-5-11.4-17.2-13.6-21.2-13.3l0-3    c0.1-5.5-8-5.9-8.1-0.1l0,3c-4.1-0.4-16.2,1.5-21.6,12.7c1-0.5,2-1,3-1.4C217.6,22.6,220.6,22,224.8,22L224.8,22z"></path>
		<path class="st0" d="M261.9,26c4.1,5.1,6.5,11.6,6.5,18.5c-0.2,16.6-14.8,29.9-32.5,29.7c-26.7-0.4-41.1-29.5-24.8-48.7"></path>
	</g>
</g>
<g>
	<g>
		<path class="st0" d="M105.5,221.5c2.3-5.8,7.1-4.5,9.9-7c3-2.6,2-6.5,9.8-8.8c10-2.9,2.5-9.3,15.5-11.5"></path>
		<path class="st0" d="M107.6,232.8c3.2-7.5,9.9-3.8,13.7-10.4c7-12.1,7.5-7,15.5-12.3c5-3.3,1-9.6,13.3-11.7"></path>
		<path class="st0" d="M170,192.8c-4.1-4.2-8.8-2-10.3,0.7c-5.5,9.7,7.2,9.7,5.6,3.4c-0.9-3.4-11.1-3-13.3,3.1"></path>
		<path class="st0" d="M174,230.7c0,0.2,0,0.4,0,0.6c-0.2,14.4-13.2,26-28.8,25.7c-15.6-0.2-28.1-12.1-27.9-26.5c0-0.2,0-0.4,0-0.6    L174,230.7z"></path>
		<path class="st0" d="M158.4,215.5c-1.4,0.8-5.9,0.4-7.4,5.5c-2.4,8.2-8.4,1.1-10.9,9.2"></path>
		<path class="st0" d="M156.4,206.4c-2.4,0-7.2,1.4-8.7,5.1c-1.8,4.3-2.8,6.8-7.2,7.5c-3.6,0.6-6.4,1.1-8.7,6.2    c-0.2,0.5-1.7,3.6-4.3,4.9"></path>
		<path class="st0" d="M120.7,244.1c-4-1.2-7.6-3.5-10.3-6.9c-8.5-10.3-5.8-26.6,6.1-36.4c11.9-9.8,28.4-9.4,36.9,0.9    c6.6,7.9,6.4,19.4,0.6,28.8"></path>
		<path class="st0" d="M166.7,230.6c0.1,12-10.9,19.7-21.5,19.5c-11.7-0.2-21.1-8.9-20.9-19.6c0-0.2,0-0.3,0-0.5"></path>
		<line class="st0" x1="131.1" y1="235.3" x2="131.9" y2="235.3"></line>
		<line class="st0" x1="135.7" y1="240.1" x2="136.6" y2="240.1"></line>
		<line class="st0" x1="139.6" y1="235.3" x2="140.4" y2="235.3"></line>
		<line class="st0" x1="141.9" y1="243.7" x2="142.8" y2="243.7"></line>
		<line class="st0" x1="145.4" y1="238.8" x2="146.3" y2="238.8"></line>
		<line class="st0" x1="148.4" y1="243.8" x2="149.2" y2="243.8"></line>
		<line class="st0" x1="151.6" y1="235.4" x2="152.4" y2="235.4"></line>
		<line class="st0" x1="158.7" y1="235.4" x2="159.6" y2="235.4"></line>
		<line class="st0" x1="154.7" y1="240.2" x2="155.6" y2="240.2"></line>
	</g>
	<g>
		<path class="st0" d="M111.6,143.6c0.5-1.7,1.5-3.9,3.7-4.9"></path>
		<path class="st0" d="M140.1,118.3c-7.9,2.3-16,11.8-16.8,17.3"></path>
		<line class="st0" x1="140.1" y1="118.3" x2="139.8" y2="138.5"></line>
		<path class="st0" d="M136.1,112.6c-0.2-1.9-1.8-5-3.6-6.1"></path>
		<path class="st0" d="M139.9,112.3c-0.4-11.7,10.1-17.2,20.5-13c0.3,4.8-3.1,12-11.5,14.2"></path>
		<path class="st0" d="M140.4,107.4c-1.9-7.3-10.4-9.2-16.6-6.8c-0.3,3.5,2,11,7.4,12.7"></path>
		<path class="st0" d="M168,144.4c-0.4-1.7-1.4-4-3.6-5"></path>
		<path class="st0" d="M140.1,118.3c7.8,2.5,15.6,12.3,16.4,17.7"></path>
		<path class="st0" d="M140.2,138.6c16.9-5.7,17.7,23.9,4.1,23.7l-9.1-0.1C121.6,162,123.4,132.5,140.2,138.6L140.2,138.6    L140.2,138.6L140.2,138.6z"></path>
		<path class="st0" d="M130.5,139.6c-1.2-2.2-3.4-3.7-7.2-4l0,0c0,0,0,0,0,0l0,0c-12.4-11.7-24.9,13.4-13.1,18.8l6.5,3    c3.6,1.7,7.4,0.3,10.1-2.3"></path>
		<path class="st0" d="M149.2,139.4c1.3-2,3.5-3.2,7.2-3.4l0,0l0,0l0,0c12.7-11.4,24.5,14,12.6,19.1l-6.6,2.8    c-3.5,1.5-7,0.3-9.6-2.2"></path>
		<path class="st0" d="M131.9,150.3c0-1.8,0.4-4.4,2.3-6"></path>
		<path class="st0" d="M144.3,112.7c0.6-3,3.2-6,6.2-7"></path>
		<path class="st0" d="M120.1,123c7.5-3.3,14.1-4.7,20-4.7c5.9,0.2,12.4,1.7,19.8,5.2c3.3,1.5,6.6-2.1,1.8-4.9    c-7.7-4.6-15.8-6-21.6-6.2c-5.8,0.1-14,1.3-21.7,5.7C113.6,120.7,116.8,124.4,120.1,123L120.1,123z"></path>
	</g>
	<g>
		<line class="st0" x1="126.7" y1="28.6" x2="133.3" y2="28.7"></line>
		<path class="st0" d="M114.8,41.9c0-3.6,0.4-8.7,4.2-12"></path>
		<path class="st0" d="M149.5,35.5c-27.5-10-27.9,38.4-5.6,38.7l5.1,0.1l5.1,0.1C176.4,74.6,177.3,26.2,149.5,35.5L149.5,35.5    C149.5,35.5,149.5,35.5,149.5,35.5L149.5,35.5z"></path>
		<path class="st0" d="M150.7,35c-2.1-8.5-8.7-14.7-20.3-10.8c0,0,0,0,0,0l0,0c-27.5-10-27.9,38.4-5.6,38.7l4.8,0.1"></path>
		<line class="st0" x1="147" y1="55" x2="146.6" y2="52.9"></line>
		<path class="st0" d="M134.6,52.9c0-3.6,0.8-8.7,4.6-12"></path>
		<line class="st0" x1="151.8" y1="55.1" x2="152.2" y2="53"></line>
		<line class="st0" x1="130.2" y1="17.6" x2="130" y2="28.6"></line>
		<path class="st0" d="M120.2,9.4c0.8,5.8,3.8,9.6,10,9.5l0-1.2C130.2,15.5,128.9,9.1,120.2,9.4L120.2,9.4z"></path>
		<path class="st0" d="M144.2,5.6c-1.3,8-5.6,13.1-14.1,12.8l0-1.6C130.2,13.5,132.3,4.9,144.2,5.6L144.2,5.6z"></path>
	</g>
</g>
<g>
	<g>
		<path class="st0" d="M49.3,192.2c1.7,2.2,2,10.2,0.7,12.4"></path>
		<path class="st0" d="M50.7,197.9c3.2,2.1,16.7,8.9,25.3-2.9C71.1,189.1,55.4,188,50.7,197.9L50.7,197.9z"></path>
		<path class="st0" d="M40.7,214.2c-2.6,1.2-5.2,3.4-6.9,6.9"></path>
		<path class="st0" d="M58.9,242.2c-0.2,0.8-0.4,1.7-0.7,2.5C53.8,256.3,39.9,261.8,27,257c-12.9-4.9-19.8-18.3-15.5-29.9    c0.3-0.8,0.7-1.6,1.1-2.4L58.9,242.2z"></path>
		<path class="st0" d="M23.9,229c0.8-13.8,12.3-24.6,26.1-24.4c14.3,0.2,25.7,12,25.5,26.4c-0.2,14.4-11.9,25.9-26.2,25.7    c-0.7,0-1.5-0.1-2.2-0.1"></path>
		<path class="st0" d="M35.7,233.5l1.6,3.5l5.8,12.3c4.1,0,7.7-3.6,9.1-9.6"></path>
		<path class="st0" d="M35.7,233.5l-1.3,3.6l-4.7,12.6c5,3.3,10.6,3.1,13.4-0.3"></path>
		<path class="st0" d="M35.7,233.5l-9.2,4.1l-6.7,3c0.4,6.5,5.5,8.6,9.9,9.1"></path>
		<path class="st0" d="M19.2,227.2c-2.9,4.7-2.7,9.5,0.6,13.3"></path>
	</g>
	<g>
		<path class="st0" d="M47.4,138.8c2.5,3.3,6.4,7.5,10.4,8.8"></path>
		<path class="st0" d="M20.8,124c1,3.8,3.4,6.4,5.5,8.4"></path>
		<path class="st0" d="M29.5,150.1c1.4,4.5,4.6,7.3,8.4,9.3"></path>
		<path class="st0" d="M52.6,123.8c-27-30-40.6,15.9-43.7,33.1c-1.5,8.7,4.2,6.9,8.7,6.4C36.8,161.3,77.5,151.4,52.6,123.8    L52.6,123.8z"></path>
		<path class="st0" d="M47.8,119.1c1.6-2.4,4.5-3.7,8.9-3.1c5.9,0.7,3.8-4.4,12.2-1.2c7.4,2.8,8.8,11.6,8.8,11.6    c-9.6-4.1-6.7,9.8-22.1,1.1"></path>
		<path class="st0" d="M56.9,116c3.9-9.3-1.4-16.6-10.8-18.1c4.7,9.5-8.4,6.7,1.4,20.9"></path>
		<path class="st0" d="M64.9,122.9c-3-1.6-9.6-2.3-13.2,0"></path>
	</g>
	<g>
		<line class="st0" x1="43.5" y1="19.8" x2="43.4" y2="31.9"></line>
		<path class="st0" d="M43.4,27.5c-32.8-12-33.3,46-6.7,46.4l6.1,0.1l6.1,0.1C75.5,74.4,76.6,16.4,43.4,27.5    C43.4,27.5,43.4,27.5,43.4,27.5L43.4,27.5L43.4,27.5z"></path>
		<path class="st0" d="M31.9,10.1c0.9,6.8,4.4,11.2,11.6,11.1l0-1.4C43.6,17.1,42,9.7,31.9,10.1L31.9,10.1z"></path>
		<line class="st0" x1="38.9" y1="31.9" x2="47.8" y2="32"></line>
		<path class="st0" d="M24.7,48.4c0-4.3,0.5-10.5,5.1-14.4"></path>
		<path class="st0" d="M59.8,5.6c-1.5,9.4-6.5,15.3-16.3,14.9l0-1.9C43.6,14.8,46,4.8,59.8,5.6L59.8,5.6z"></path>
	</g>
</g>
<g>
	<g>
		<path class="st0" d="M1196.3,8.6c0.2,16-26,15.6-27.4,37.7c-0.8,12,10.7,22.3,20.4,17.2"></path>
		<path class="st0" d="M1234.7,57.9c-3.7,6-10.9,12.6-20.5,15.3c-21.2,6-28.5-17.5-7.4-23.5c9.6-2.7,17.4,0.6,26.3,4.1    C1235.7,54.9,1235.7,56.2,1234.7,57.9L1234.7,57.9z"></path>
		<path class="st0" d="M1194.5,66.5c-6.3-2.2-12.4-8.8-12.4-19.8c0-11.3,5.6-16.1,10.3-20.6c4.1-3.9,4-6.4,4-11.8V8.6    c0-4.1,6.4-4.1,6.5,0v5.9c0,6.9-1,6.4,3.7,11.6c4.3,4.6,9,9.5,9,20.7c0,0.7,0,1.4-0.1,2.1"></path>
		<path class="st0" d="M1202.8,8.6c0.9,16.8,24.6,15.2,26,37.4c0.1,2.1-0.1,4.1-0.6,6"></path>
		<path class="st0" d="M1219.6,62.2c-2.3,3.7-6.6,6.6-14.3,5.8"></path>
		<path class="st0" d="M1193.2,34.5c-2.2,2.4-5,9.2-3.1,16.7"></path>
	</g>
	<g>
		<path class="st0" d="M1770.7,5.6c1.2,1.3,3.1,5.2,2.2,8.7"></path>
		<path class="st0" d="M1779.1,21.9l-0.2-1.4c-0.5-3.3-1-5.7-6-6.3c-4.7-0.5-5.8,1.8-7,4.8c-1.2,3-2,4.4-6.5,9.3    c-27.9,30.4,0.8,54.7,23.8,41.3"></path>
		<path class="st0" d="M1776.4,36.3c0.5,12.4-3.7,22.8,6.1,32.6c12.6,12.6,34.9,2.3,32.7-14.9c-2.1-17.2-16-17.7-23.8-25.1    c-4.8-7.1-7.6-9.2-11.5-7.3c-0.8,0.3-2,0.9-2.5,1.2C1772.7,25.9,1776.2,31.8,1776.4,36.3L1776.4,36.3z"></path>
		<path class="st0" d="M1786.4,58.1c-2.8-5.2-1.3-11.4,3.4-13.9c4.7-2.5,10.8-0.3,13.6,4.9c2.8,5.2,1.3,11.5-3.4,13.9    C1795.3,65.5,1789.2,63.3,1786.4,58.1L1786.4,58.1z"></path>
		<path class="st0" d="M1756.2,46.4c-2.4,8.1,0.5,15.2,6.2,17.9"></path>
		<path class="st0" d="M1798.1,57.3c0.7-1,1.1-3.3,0.5-5.2"></path>
	</g>
	<g>
		<path class="st0" d="M1415.1,22.1c10.2,3.1,16.4,12.8,13.9,21.6c-0.3,1.2-0.8,2.3-1.4,3.3c-7.3-0.6-14.6-2.2-21.9-4.8    c-4.7-1.6-9.4-3.7-14.1-6.1c0-1.2,0.2-2.4,0.6-3.6C1394.7,23.8,1405,19.1,1415.1,22.1L1415.1,22.1z"></path>
		<path class="st0" d="M1394.1,37.4c-6,0.3-12.3-0.1-19.6-1.7c-1.2-0.3-4.3-3.3-4.3-3.3s-3.5,2.6-4.6,2.5c-1.3-0.1-2.6-0.3-4-0.5    c-0.4-1.7-0.6-3.4-0.6-5.1c0-13.1,12.2-23.7,27.3-23.7c12.1,0,22.3,6.8,25.9,16.3"></path>
		<path class="st0" d="M1405.7,42.3c-0.5,6.5-3.3,8.4-6.6,11.2c-7.2,4.5,6.1,15.3,10.6,3.3c1.6-4.3,1.7-6.1,2.3-12.5"></path>
		<path class="st0" d="M1381.2,37.1c2,10.3-1.4,13.5-4.9,19.4c-8.4,10.4,14.8,21,16.5,0.1c0.3-4.2,0.3-6.9-0.1-10.3    c-0.1-0.8-0.1-3.6-2-8.7"></path>
		<path class="st0" d="M1371.4,20.3c2.8-4.2,7.5-7,13.3-7.6"></path>
	</g>
	<g>
		<path class="st0" d="M1573.2,45.6l-10.5,9.7c-12.6,11.7,2.1,20.9,6.7,17.9c5.3-3.4,12.9-9.7,17.2-13.6c2.2-1.9,6.9-2.5,9-0.7    c6.3,5.3,13.8,1.4,12.6-5c8.7,1.6,14.4-9.7,6.1-15.7c7.2,1.5,9.1-10.1,1.2-10.8c5.3-9.2-11.3-18.5-16.4-6c-2.8-5-10-4.5-12.2,0.7    c-4.7-2.6-9.8,2.7-7,7.3C1573.7,38.1,1579.6,39.6,1573.2,45.6L1573.2,45.6z"></path>
		<path class="st0" d="M1606.3,15.5c1.5-9.7-13.7-14.5-19.6-3.9c-1.3-1.5-3.2-2.4-5.3-2.4c-3.1,0.1-5.7,2.3-6.4,5.2    c-5-1.7-8.9,4.4-5.5,8.2c-5.3,9.7,3.2,11.6-2.2,18.2l-7.5,9.1c-4.8,5.9-4.5,13-1.8,17"></path>
		<path class="st0" d="M1562.6,72.4l26.5-23.8l13.4-1.3c3.6-0.6,3.2-5.3-0.3-4.9l-7.4,0.8l7.4-10.5c0.9-1.7-1.3-4.2-3.4-2.2    l-8.4,9.5l-0.7-4.5c-0.3-2.8-3.6-2.5-3.7,0.1l-0.5,9.1l-27.3,22.3"></path>
	</g>
	<g>
		<path class="st0" d="M1010.9,71.8c5.4-4.1,13.4,0.3,18.9-11.8c4.8-10.7,11.8-9.4,13-11.3c2-3.4-10-9.5-14.6-1.2    c-2,3.7-7.9-3.8-10.6,8.3c-1.1,4.7-12.5,1.5-10.2,12.8C1007.5,69.6,1009.7,72.7,1010.9,71.8L1010.9,71.8z"></path>
		<path class="st0" d="M1036.9,43.5c6-2.4,7.5-6.5,5.5-12.1c-1.1-2.9,2.9-6.4-1.4-13.3c-2.3-3.8-5.9-1.9-9.3-6.2    c-4.3-5.6-10.2-1.7-14.1-5c-2-1.7-7-1.1-9.5-0.1c-1.7,0.7-5.5,0.8-5.4,2.7c0,0.5,0.9,1.7,0.3,3.8"></path>
		<path class="st0" d="M1007.3,68.6c-31.6,4.9-39.1-33.2-27.4-50.6c3.8,0.1,12.7,2.3,6,14.4c5.8,1,2.4,5.8,2.9,10.3    c0.2,2.2,0.4,5.3,2.1,7.2c1.7,1.8,4.1,2.8,7.8,1.2c4.7-2,11.8,1.6,9.9,10.4"></path>
		<path class="st0" d="M1035.1,43.4c0.2-1.1,0.2-2.3,0.2-3.5c0-14.9-12.1-27-27.1-27c-8.2,0-15.5,3.6-20.4,9.3"></path>
		<path class="st0" d="M1002.7,9.3c-4.1-4.2-6.7,0.5-9.3-1.8c-8.1-7-9.8,7-8.3,11.8"></path>
		<path class="st0" d="M1018.8,24.3c-16.3,4.1-19.8,19.2-20.2,26.2"></path>
		<polyline class="st0" points="1008.2,21.5 1008.6,29.4 1017.2,30.5   "></polyline>
		<polyline class="st0" points="998.5,31.2 1000.9,40.2 1009.1,41.1   "></polyline>
	</g>
	<g>
		<path class="st0" d="M1678,14.2c5.8,0.1,10.5,3,10.4,6.4c0,3.5-4.8,6.2-10.6,6.1s-10.5-3-10.4-6.4    C1667.5,16.9,1672.2,14.1,1678,14.2L1678,14.2z"></path>
		<path class="st0" d="M1674.4,14.5l0.1-5.6c0-4.7,6.7-4.1,6.6-0.1l-0.1,5.7"></path>
		<path class="st0" d="M1669.8,24.4c-15.5,3.5-14.8-14.4,3.3-9.6"></path>
		<path class="st0" d="M1695.9,23.1c2.9,3,4.9,6.3,6.1,10.3 M1678.6,64.8c-0.3,0-0.6,0-0.9,0c-13.8-0.2-24.8-11.3-24.6-24.9    c0.1-6.5,3-12.6,7.2-17"></path>
		<path class="st0" d="M1696,53.5l0.1-10.4c0.1-4.9-10.3-3.8-7.4,2.9"></path>
		<path class="st0" d="M1696.3,43.1c0.1-4.9,10.4-3.5,7.3,3.1l-7.4,7.2"></path>
		<path class="st0" d="M1696,63.9c-0.1,4.9-10.4,3.5-7.3-3.1l7.4-7.2"></path>
		<path class="st0" d="M1696,53.5l-0.1,10.4c-0.1,4.9,10.3,3.8,7.4-2.9"></path>
		<path class="st0" d="M1706.5,53.6c4.9,0.1,3.5,10.4-3.1,7.3l-7.2-7.4"></path>
		<path class="st0" d="M1696,53.5l10.5,0.1c4.9,0.1,3.8-10.3-2.9-7.4"></path>
		<path class="st0" d="M1696,53.5l-10.2-0.1c-4.9-0.1-3.9,10.4,2.9,7.4"></path>
		<path class="st0" d="M1685.8,53.4c-5.4-0.1-3.5-10.4,3.1-7.3l7.2,7.4"></path>
		<path class="st0" d="M1686,24.6c15.4,4,15.1-14-3.1-9.6"></path>
		<path class="st0" d="M1696.4,32.6c11.5,0.2,20.8,9.6,20.6,21.2c-0.2,11.6-9.6,20.8-21.2,20.7c-11.5-0.2-20.8-9.6-20.6-21.2    C1675.4,41.7,1684.9,32.4,1696.4,32.6L1696.4,32.6z"></path>
	</g>
	<g>
		<path class="st0" d="M1288,71.6l-2.2,0c-4.4-0.1-10.5-1.6-10.2-10.9c0.3-11.6-4.1-11.9-6.3-21.9c-2.2-10,4.3-23.9,16-23.7l5.3,0.1    "></path>
		<path class="st0" d="M1295.6,14.9l0.1-5.9c0.1-4.6,7.8-4.5,7.8-0.1l-0.1,6.2"></path>
		<path class="st0" d="M1290.2,43.9c-2.5-6.6-1.7-13.7,0.3-18.7"></path>
		<path class="st0" d="M1289.2,15.8c1.9-1.2,5.7-1.3,8-0.2c1.2,0.6,1.7,0.5,3.1,0c2.3-0.8,5.7-0.8,7.5,0.4c12.6,8.3,8.4,30.6,3.9,39    c-2.2,4.2-3,4.8-3.1,11.3c-0.1,4.8-0.9,7.7-6.2,7.7l-4.6-0.1l-4.6-0.1c-4.8-0.1-6-2.4-5.9-6.4l0.1-3.9c0-3.5-1.3-5.6-3-8.9    C1280,46.2,1276.4,23.8,1289.2,15.8L1289.2,15.8z"></path>
		<path class="st0" d="M1307.5,71.9l3.2,0c4.4,0.1,10.5-1.4,10.5-10.6c0-11.6,4.4-11.8,6.8-21.7c2.4-9.9-3.7-24-15.4-24.1l-6.5-0.1"></path>
	</g>
	<g>
		<path class="st0" d="M1881.1,23.7c12,0.2,21.7,9.9,21.5,21.6c-0.2,11.8-10,21.2-22.1,21.1c-12-0.2-21.7-9.9-21.5-21.6    C1859.2,33,1869.1,23.6,1881.1,23.7L1881.1,23.7z"></path>
		<path class="st0" d="M1859.1,46.9c-4.6-3.2-7.9-7.6-9.3-12.6c-3.1,0-6-1.2-5.9-4.9l0-1.7c0-3.7,3-4.7,6.1-4.7    c3.3-10.2,14.9-17.7,28.7-17.5c13.8,0.2,25.2,8,28.2,18.4c3,0,5.7,1.4,5.6,4.9l0,1.7c0,3.4-2.7,4.8-5.8,4.7    c-0.9,2.7-2.3,5.2-4.2,7.5"></path>
		<path class="st0" d="M1866.4,14.6c4.7-2.8,10.7-3.6,16.5-2.4"></path>
		<path class="st0" d="M1880.9,41.9c1.8,0,3.2,1.5,3.2,3.3c0,1.8-1.5,3.2-3.3,3.2c-1.8,0-3.2-1.5-3.2-3.3    C1877.6,43.3,1879.1,41.9,1880.9,41.9L1880.9,41.9z"></path>
		<path class="st0" d="M1881.3,41.6l0.1-11c-1.3-1.4-9-0.5-10.4,4.1"></path>
		<path class="st0" d="M1883.2,42.9l8.1-7.9c-0.9-3.5-6.8-6.2-10.3-4.4"></path>
		<path class="st0" d="M1884.6,44.9l10.8,0.1c1.6-4-0.7-9-4.2-10.4"></path>
		<path class="st0" d="M1883.1,47.4l7.9,8.1c3.2-1.2,5-5.1,4.4-10.2"></path>
		<path class="st0" d="M1881.3,48.2l-0.2,11.5c4.8,1.2,9.1-0.6,10.4-4.1"></path>
		<path class="st0" d="M1878.5,47l-8.1,7.9c1.6,3.8,6.1,5.3,10.2,4.4c0,0,0.5,0,0.5,0"></path>
		<path class="st0" d="M1878,44.8l-11.7-0.2c-1,4.6,0.6,8.3,4.2,10.4"></path>
		<path class="st0" d="M1878.6,42.8l-4.9-5l-3-3.1c-3.5,0.6-6.1,5.6-4.4,10.2"></path>
	</g>
	<g>
		<path class="st0" d="M1071.3,36.6c2.3-5.8,7.1-4.5,9.9-7c3-2.6,2-6.5,9.8-8.8c10-2.9,2.5-9.3,15.5-11.5"></path>
		<path class="st0" d="M1073.4,47.8c3.2-7.5,9.9-3.8,13.7-10.4c7-12.1,7.5-7,15.5-12.3c5-3.3,1-9.6,13.3-11.7"></path>
		<path class="st0" d="M1135.9,7.9c-4.1-4.2-8.8-2-10.3,0.7c-5.5,9.7,7.2,9.7,5.6,3.4c-0.9-3.4-11.1-3-13.3,3.1"></path>
		<path class="st0" d="M1139.8,45.8c0,0.2,0,0.4,0,0.6c-0.2,14.4-13.2,26-28.8,25.7c-15.6-0.2-28.1-12.1-27.9-26.5    c0-0.2,0-0.4,0-0.6L1139.8,45.8z"></path>
		<path class="st0" d="M1124.2,30.6c-1.4,0.8-5.9,0.4-7.4,5.5c-2.4,8.2-8.4,1.1-10.9,9.2"></path>
		<path class="st0" d="M1122.2,21.5c-2.4,0-7.2,1.4-8.7,5.1c-1.8,4.3-2.8,6.8-7.2,7.5c-3.6,0.6-6.4,1.1-8.7,6.2    c-0.2,0.5-1.7,3.6-4.3,4.9"></path>
		<path class="st0" d="M1086.6,59.2c-4-1.2-7.6-3.5-10.3-6.9c-8.5-10.3-5.8-26.6,6.1-36.4c11.9-9.8,28.4-9.4,36.9,0.9    c6.6,7.9,6.4,19.4,0.6,28.8"></path>
		<path class="st0" d="M1132.5,45.7c0.1,12-10.9,19.7-21.5,19.5c-11.7-0.2-21.1-8.9-20.9-19.6c0-0.2,0-0.3,0-0.5"></path>
		<line class="st0" x1="1096.9" y1="50.4" x2="1097.7" y2="50.4"></line>
		<line class="st0" x1="1101.5" y1="55.2" x2="1102.4" y2="55.2"></line>
		<line class="st0" x1="1105.4" y1="50.4" x2="1106.2" y2="50.4"></line>
		<line class="st0" x1="1107.8" y1="58.8" x2="1108.6" y2="58.8"></line>
		<line class="st0" x1="1111.2" y1="53.9" x2="1112.1" y2="53.9"></line>
		<line class="st0" x1="1114.2" y1="58.8" x2="1115" y2="58.8"></line>
		<line class="st0" x1="1117.4" y1="50.5" x2="1118.2" y2="50.5"></line>
		<line class="st0" x1="1124.5" y1="50.5" x2="1125.4" y2="50.5"></line>
		<line class="st0" x1="1120.6" y1="55.3" x2="1121.4" y2="55.3"></line>
	</g>
	<g>
		<path class="st0" d="M1498,7.2c1.7,2.2,2,10.2,0.7,12.4"></path>
		<path class="st0" d="M1499.5,12.9c3.2,2.1,16.7,8.9,25.3-2.9C1519.8,4.1,1504.1,3.1,1499.5,12.9L1499.5,12.9z"></path>
		<path class="st0" d="M1489.4,29.3c-2.6,1.2-5.2,3.4-6.9,6.9"></path>
		<path class="st0" d="M1507.6,57.3c-0.2,0.8-0.4,1.7-0.7,2.5c-4.3,11.6-18.3,17.1-31.2,12.3c-12.9-4.9-19.8-18.3-15.5-29.9    c0.3-0.8,0.7-1.6,1.1-2.4L1507.6,57.3z"></path>
		<path class="st0" d="M1472.6,44c0.8-13.8,12.3-24.6,26.1-24.4c14.3,0.2,25.7,12,25.5,26.4c-0.2,14.4-11.9,25.9-26.2,25.7    c-0.7,0-1.5-0.1-2.2-0.1"></path>
		<path class="st0" d="M1484.5,48.5l1.6,3.5l5.8,12.3c4.1,0,7.7-3.6,9.1-9.6"></path>
		<path class="st0" d="M1484.5,48.5l-1.3,3.6l-4.7,12.6c5,3.3,10.6,3.1,13.4-0.3"></path>
		<path class="st0" d="M1484.5,48.5l-9.2,4.1l-6.7,3c0.4,6.5,5.5,8.6,9.9,9.1"></path>
		<path class="st0" d="M1468,42.3c-2.9,4.7-2.7,9.5,0.6,13.3"></path>
	</g>
</g>
<g>
	<g>
		<path class="st0" d="M1186.6,219.5c-2.2,0.3-4.4-0.3-6.3-1.8c-3.8-3-4.4-8.4-1.5-12.2c2.9-3.8,8.4-4.5,12.1-1.5    c1.8,1.4,2.9,3.4,3.2,5.5"></path>
		<path class="st0" d="M1214.3,224c1.8,0.1,3.5,0.7,5,1.8c3.8,3,4.4,8.4,1.5,12.2c-2.5,3.3-7,4.2-10.6,2.5"></path>
		<path class="st0" d="M1188.1,223.2c-2.1-3.1-2.2-7.3,0.2-10.4c2.9-3.8,8.4-4.5,12.1-1.5c3.8,3,4.4,8.4,1.5,12.2    c-0.5,0.7-1.1,1.2-1.7,1.7"></path>
		<path class="st0" d="M1203.8,217.4c2.5-0.6,5.2-0.1,7.4,1.6c3.8,3,4.4,8.4,1.5,12.2c-1,1.3-2.3,2.2-3.7,2.8"></path>
		<path class="st0" d="M1201.8,230.1c1.8,0,3.7,0.6,5.3,1.8c3.8,3,4.4,8.4,1.5,12.2c-2.4,3.1-6.5,4.1-10,2.7"></path>
		<path class="st0" d="M1184.6,229.9c0.1-1.7,0.7-3.5,1.8-5c2.9-3.8,8.4-4.5,12.1-1.5c3.8,3,4.4,8.4,1.5,12.2    c-1,1.3-2.2,2.2-3.6,2.7"></path>
		<path class="st0" d="M1175.5,229.7c-2.5-3.1-2.6-7.5-0.1-10.8c0.9-1.2,2.1-2.1,3.4-2.7"></path>
		<path class="st0" d="M1183.8,242.5c3.8,3,4.4,8.4,1.5,12.2c-2.9,3.8-8.4,4.5-12.1,1.5c-3.8-3-4.4-8.4-1.5-12.2    C1174.6,240.3,1180,239.6,1183.8,242.5L1183.8,242.5z"></path>
		<path class="st0" d="M1188.5,236c-0.3-2.2-1.4-4.2-3.2-5.6c-3.8-3-9.2-2.3-12.1,1.5c-2.5,3.2-2.4,7.6,0,10.7"></path>
		<path class="st0" d="M1182.2,241.5c0.3-0.8,0.7-1.6,1.3-2.4c2.9-3.8,8.4-4.5,12.1-1.5c3.8,3,4.4,8.4,1.5,12.2    c-2.5,3.3-7,4.2-10.5,2.5"></path>
		<path class="st0" d="M1205.6,217.2c3-3.6,8.1-17.3,6.3-23.4c-0.8-6-7.5-4.3-7.3-0.1c0.6,4.8,0.9,12-3.2,18.5"></path>
		<path class="st0" d="M1211.1,204.3c11.2,5.6,18.7-4.4,23.3,15.2c-8.1,1.5-19-0.5-24.3-11.7"></path>
	</g>
	<g>
		<path class="st0" d="M1758.2,222.6c-4-6.4,4-11.5,7.8-7.6"></path>
		<path class="st0" d="M1773.6,207.4c-3.9-4,1-10.8,6.5-8.6"></path>
		<path class="st0" d="M1767.6,219.8c-5.3-5.9,3.3-16.4,10.7-10.7"></path>
		<path class="st0" d="M1761.7,213.8c-2.4-3.2-2.4-7.3,0.5-10.2c2.9-2.8,7.6-2.9,10-0.4"></path>
		<path class="st0" d="M1763.2,229.4c-3.2-5.7,2.7-12.3,8.1-8.7"></path>
		<path class="st0" d="M1773.1,225.4c-6-6.5,4.3-17,11.6-9.7"></path>
		<path class="st0" d="M1768.3,235.6c-3.3-6.3,3.8-13.3,11-9.1"></path>
		<path class="st0" d="M1786,221c-4-5.2,1-13.1,8.6-10.4"></path>
		<path class="st0" d="M1779.5,232.1c-1.1-2.7-1.1-6.3,2.1-9.2c2.7-2.5,6.7-2.2,9.3-0.9"></path>
		<path class="st0" d="M1753.3,214.7c-3.4-5,2.5-10.9,6.8-7"></path>
		<path class="st0" d="M1766.7,201.5c-3.7-3.8,1.3-10.5,6.9-6.8"></path>
		<path class="st0" d="M1756.4,206.5c-4.8-5.8,2-13.9,9.2-9.3"></path>
		<path class="st0" d="M1804.2,253.6c-2-2.5-11.1-15.5-12.8-23.5c-2.5-12.4,4-22.8,9.7-27.4c3.5-2.8,3-1.3,3.1,1.1    c0.2,3.7,1.4,11,6.4,23.5C1818.8,247.3,1804.2,253.6,1804.2,253.6L1804.2,253.6z"></path>
		<path class="st0" d="M1792.7,234.2c-1.4-0.6-2.7-1.2-4-1.5c-12.1-2.8-22.3,2.5-26.7,8c-2.7,3.4,0,5,3,4.4c9-2,13.5,3.5,20.3,6.8    c9.8,4.8,15.5,3.9,18.8,1.6"></path>
		<path class="st0" d="M1801.3,255l2.7,3.1c3,3.1,6.9-1.2,9.4-3.1c1.6-1.6,1.3-3.9-0.3-5.6l-2.1-2.2"></path>
		<path class="st0" d="M1768.3,235.6c-11.5-13.4-25.9-33.7-16.5-43.1c7.6-7.6,25.3,2,42.9,18"></path>
		<path class="st0" d="M1779,213.3c-2.9-4.7,2.7-11.8,9.3-8.3"></path>
		<path class="st0" d="M1800.3,248c-11.1,3.6-15.9-8.3-29.2-8"></path>
	</g>
	<g>
		<path class="st0" d="M1400.7,207.8c-0.1-0.1-6,5-12.7-0.8c-1,6.8-7.8,7.5-7.7,7.6"></path>
		<path class="st0" d="M1388.9,199.4l-1.4-6.6c-1.3-5-7.9-3.3-5.9,2.5l1.9,6.2"></path>
		<path class="st0" d="M1396,230c-2.5-2.8-6-8.5-7.6-12.3"></path>
		<path class="st0" d="M1427,249.1c-14,6.8-32.8,7.1-50-1.5c-14.7-6-4.9-23.2,7-17c14.4,8.4,26.3,12.4,36.3,14.2    c2.2,0.4,4.3,0.7,6.4,0.9C1431.3,246.2,1429.3,248,1427,249.1L1427,249.1z"></path>
		<path class="st0" d="M1423.7,250.5c1.5,1.8,3,3.6,4.5,5.1c2.6,2.6,0.1,2.8-4.5,1.5c-3.3-1-6.6-2.3-9.8-3.9 M1391.6,234.7    c-4.1-5.2-7.6-11.2-10.3-17.9c-8.3-16.9,14-24.3,19.6-9.6c5.4,16.4,11.8,28.2,18.2,37.3"></path>
		<path class="st0" d="M1383.4,230.5c-0.1,0-1,6.5-8.5,6.6c3.2,4.8-0.7,9.1-0.6,9.1"></path>
		<path class="st0" d="M1372.7,231.7l-5.7-4.7c-4.4-3.6-8.8,2.9-3.2,6.1l6.1,3.2"></path>
	</g>
	<g>
		<path class="st0" d="M1597.3,192.4c-4.3,7.3-12,8.5-20.2,5C1577,197.4,1582.1,184.5,1597.3,192.4L1597.3,192.4z"></path>
		<line class="st0" x1="1577" y1="203" x2="1577.1" y2="189.9"></line>
		<path class="st0" d="M1570.3,248.6c-3.6-1.6-6.9-4.5-7.9-10.3"></path>
		<path class="st0" d="M1580.7,226.1c-6,27.4,13.2,38.2,29.5,29.7c15.6-8.1,17.5-30.4-8-40.6c-6.7-4.8-8.9-9.5-14.6-6.1l-3.7,1.9    C1578.3,213.7,1580.9,219.9,1580.7,226.1L1580.7,226.1z"></path>
		<path class="st0" d="M1587.6,209c-1.9-4.5-3.6-5.9-8.3-6l-4-0.1c-6.5-0.1-7.2,6.9-10.4,12.5c-19.1,22.4-6.6,41.8,12.7,41.9    c3.8,0,7.4-0.8,10.5-2.3"></path>
		<line class="st0" x1="1597" y1="238.1" x2="1595.2" y2="236.1"></line>
		<line class="st0" x1="1604.3" y1="234.5" x2="1603.4" y2="232.1"></line>
	</g>
	<g>
		<path class="st0" d="M1011.8,227.8l-8-17.2l-4.5,14.1 M993.8,223.8c0.3-3.2,8.8-24.2,10.4-28.3c2.1-5.3,9.2-2.1,6.1,3    c-0.6,1-1.1,2.2-3.1,7.7c0.1,0.1,8.4,18.8,9.7,20.7"></path>
		<path class="st0" d="M1008.9,201.6c0.3-0.8,11.1-10.9,28-2c6.7,3.5,2.1,6.1,0.5,6.9c-8.4,4.1-21.1,9.4-30.3-0.2"></path>
		<path class="st0" d="M1002.3,200.1c-2-6-3-11.6-18.8-10c0.1,13,6.9,16.7,16.4,14.7"></path>
		<path class="st0" d="M1007.7,204.8c6.1-1,10-2.3,21.6-1.7"></path>
		<path class="st0" d="M984,236.3c0.1-2,0.8-4.7,3-6.3"></path>
		<path class="st0" d="M1007.4,244.1c-0.5-2.2-0.6-5.5,1.3-8"></path>
		<path class="st0" d="M1014.7,228c19.5-11.3,28.1,24.8,11.2,28.1l-11.3,2.2C997.7,261.5,992.4,224.8,1014.7,228L1014.7,228    L1014.7,228L1014.7,228z"></path>
		<path class="st0" d="M995.2,224.6c-16.6-10.2-24.9,20.7-10.3,24l8,1.8c3.1,0.7,5.9-0.2,8.1-2c-2.4-7-1.3-15.7,4.8-19.2    C1004.2,226.1,1000.8,224,995.2,224.6L995.2,224.6L995.2,224.6L995.2,224.6z"></path>
	</g>
	<g>
		<path class="st0" d="M1668.7,198.6l0.1-6c0-3.6,5.6-3.6,5.5,0.1l-0.1,6"></path>
		<path class="st0" d="M1697.7,214.6c-2.5,1.7-15.7,1.3-26.3,10.6c-11.8,10.3-7.6,26.2-5.7,28.5c2.1,2.5,16.6,9.8,29.1-0.9    c10.9-9.3,11.7-22.8,13.9-25.2C1716.3,219.7,1706.7,208.3,1697.7,214.6L1697.7,214.6z"></path>
		<path class="st0" d="M1686,217.5c-2.7-5.4-5.8-9.1-6-10.9c-1.1-10.9-16.1-11.3-17.2-0.2c-0.3,3-9.4,12.8-9.4,27    c0,14.1,11.9,21.5,16.6,23"></path>
		<path class="st0" d="M1691.2,242.8c6.9-5.9,10.1-13.5,7-17.1c-3-3.6-11.1-1.7-18,4.2c-6.9,5.9-7.5,16.4-7,17.1    C1673.7,247.7,1684.3,248.7,1691.2,242.8L1691.2,242.8z"></path>
		<path class="st0" d="M1707.6,214.1l4.2-3.5c3.1-2.9,6.8,1.8,3.9,4.1l-4.6,3.8"></path>
		<line class="st0" x1="1683.5" y1="240.9" x2="1684.3" y2="240.5"></line>
		<line class="st0" x1="1680.9" y1="237.5" x2="1681.5" y2="236.9"></line>
		<line class="st0" x1="1688.2" y1="237.3" x2="1688.9" y2="236.9"></line>
		<line class="st0" x1="1685.1" y1="233.5" x2="1685.8" y2="233"></line>
		<line class="st0" x1="1689.7" y1="230.5" x2="1690.4" y2="230.1"></line>
		<line class="st0" x1="1692.6" y1="233.8" x2="1693.1" y2="233.1"></line>
	</g>
	<g>
		<path class="st0" d="M1323.7,246.7c21.5-19.9-6.5-42.1-19.4-26.3c-10.9,13.4-17.1,12.3-22.2,12.2c-6.6-0.2-9.3,4.7-6.2,11.1    C1283.4,259.4,1309.5,259.8,1323.7,246.7L1323.7,246.7z"></path>
		<path class="st0" d="M1318.5,215.4c5.4-23-27.1-28.1-32.3-9.6c-4.9,17.6-11.2,16.7-16.3,18.5c-6.5,2.4-7.9,9.2-1.6,13.2    c2.1,1.4,4.2,2.4,6.5,3.2"></path>
		<path class="st0" d="M1285,244.4c5.8,6.3,18.4,5.2,24.2,3"></path>
		<path class="st0" d="M1325,218.5l2.9-4c2.9-3.9,6.7,0,4.5,3.1l-3.8,4.7"></path>
		<path class="st0" d="M1310.4,196.4l3.7-5.1c2.7-3.7,7,0.3,4.5,3.1l-3.9,5.1"></path>
	</g>
	<g>
		<path class="st0" d="M1890.9,208.2c-41.4-36-51.3,38.3-41.3,47C1863.1,267,1929.1,241.4,1890.9,208.2L1890.9,208.2z"></path>
		<line class="st0" x1="1886.9" y1="239.7" x2="1889.2" y2="238"></line>
		<line class="st0" x1="1878.7" y1="231.6" x2="1880.8" y2="229.6"></line>
		<line class="st0" x1="1862.3" y1="218.7" x2="1863.7" y2="216.2"></line>
		<line class="st0" x1="1870.6" y1="224.5" x2="1872.3" y2="222.2"></line>
		<line class="st0" x1="1874.7" y1="243.5" x2="1877" y2="241.8"></line>
		<line class="st0" x1="1867.6" y1="237.1" x2="1869.4" y2="235"></line>
		<line class="st0" x1="1860.1" y1="230.8" x2="1861.7" y2="228.5"></line>
		<line class="st0" x1="1863.1" y1="247.9" x2="1865.3" y2="246.1"></line>
		<line class="st0" x1="1856.5" y1="242" x2="1858.1" y2="239.7"></line>
		<path class="st0" d="M1901,236.1c-0.9-9.2-5.1-14.5-6.9-16c1,3.9-1.2,7-3.1,8c-0.3-4.7-1.5-8.5-4.2-10.4c-3.8,1.9-6.8,2.7-7,2.6    c-0.2-0.4,0.3-4.9,1.5-7.4c-2.3-2.4-6.6-2.6-11.2-2.3c0.8-2,3.4-5,7.8-4.4c-2.7-3.3-9.9-5-18.9-3.4"></path>
		<path class="st0" d="M1887,194.5c-1.5-2.1-5.2-3.6-7.8-3.9c-0.5,2.6-0.4,6.9,1.3,10.5"></path>
		<path class="st0" d="M1890.9,208.2c4.6-6.9,12.8-9.2,19-1.6c-3,2.9-7.2,7.3-13.6,6.9"></path>
		<path class="st0" d="M1895.9,203.3c1.9-4.7,0.6-9.9-5.2-13.4c-3.2,2.4-6.2,8.1-4.9,14.4"></path>
		<path class="st0" d="M1905,210.8c2.3,1.2,4.7,4.4,5.4,7c-2.6,0.9-6.9,2-10.8,0.5"></path>
		<path class="st0" d="M1893.7,210.8c0.8-1,2.9-2.6,5-3.1"></path>
		<path class="st0" d="M1887.8,205.7c1.1-1.2,1.9-2.9,2.5-5"></path>
	</g>
	<g>
		<path class="st0" d="M1077.4,235.6c0.5-1.7,1.5-3.9,3.7-4.9"></path>
		<path class="st0" d="M1105.9,210.2c-7.9,2.3-16,11.8-16.8,17.3"></path>
		<line class="st0" x1="1105.9" y1="210.2" x2="1105.7" y2="230.4"></line>
		<path class="st0" d="M1101.9,204.5c-0.2-1.9-1.8-5-3.6-6.1"></path>
		<path class="st0" d="M1105.7,204.3c-0.4-11.7,10.1-17.2,20.5-13c0.3,4.8-3.1,12-11.5,14.2"></path>
		<path class="st0" d="M1106.3,199.4c-1.9-7.3-10.4-9.2-16.6-6.8c-0.3,3.5,2,11,7.4,12.7"></path>
		<path class="st0" d="M1133.8,236.3c-0.4-1.7-1.4-4-3.6-5"></path>
		<path class="st0" d="M1105.9,210.2c7.8,2.5,15.6,12.3,16.4,17.7"></path>
		<path class="st0" d="M1106,230.5c16.9-5.7,17.7,23.9,4.1,23.7l-9.1-0.1C1087.4,253.9,1089.2,224.4,1106,230.5L1106,230.5    L1106,230.5L1106,230.5z"></path>
		<path class="st0" d="M1096.3,231.5c-1.2-2.2-3.4-3.7-7.2-4l0,0c0,0,0,0,0,0l0,0c-12.4-11.7-24.9,13.4-13.1,18.8l6.5,3    c3.6,1.7,7.4,0.3,10.1-2.3"></path>
		<path class="st0" d="M1115,231.4c1.3-2,3.5-3.2,7.2-3.4l0,0l0,0l0,0c12.7-11.4,24.5,14,12.6,19.1l-6.6,2.8c-3.5,1.5-7,0.3-9.6-2.2    "></path>
		<path class="st0" d="M1097.8,242.2c0-1.8,0.4-4.4,2.3-6"></path>
		<path class="st0" d="M1110.1,204.6c0.6-3,3.2-6,6.2-7"></path>
		<path class="st0" d="M1086,214.9c7.5-3.3,14.1-4.7,20-4.7c5.9,0.2,12.4,1.7,19.8,5.2c3.3,1.5,6.6-2.1,1.8-4.9    c-7.7-4.6-15.8-6-21.6-6.2c-5.8,0.1-14,1.3-21.7,5.7C1079.4,212.6,1082.6,216.3,1086,214.9L1086,214.9z"></path>
	</g>
	<g>
		<path class="st0" d="M1496.1,230.8c2.5,3.3,6.4,7.5,10.4,8.8"></path>
		<path class="st0" d="M1469.5,216c1,3.8,3.4,6.4,5.5,8.4"></path>
		<path class="st0" d="M1478.3,242.1c1.4,4.5,4.6,7.3,8.4,9.3"></path>
		<path class="st0" d="M1501.3,215.7c-27-30-40.6,15.9-43.7,33.1c-1.5,8.7,4.2,6.9,8.7,6.4C1485.5,253.3,1526.2,243.4,1501.3,215.7    L1501.3,215.7z"></path>
		<path class="st0" d="M1496.5,211c1.6-2.4,4.5-3.7,8.9-3.1c5.9,0.7,3.8-4.4,12.2-1.2c7.4,2.8,8.8,11.6,8.8,11.6    c-9.6-4.1-6.7,9.8-22.1,1.1"></path>
		<path class="st0" d="M1505.7,207.9c3.9-9.3-1.4-16.6-10.8-18.1c4.7,9.5-8.4,6.7,1.4,20.9"></path>
		<path class="st0" d="M1513.6,214.8c-3-1.6-9.6-2.3-13.2,0"></path>
	</g>
</g>
<g>
	<g>
		<path class="st0" d="M1193.5,122.1c-1.8-8.1-6.4-12.5-11.8-16.3c7.1-0.9,17.9,4.1,19.6,16.3"></path>
		<path class="st0" d="M1213.1,122.4c0.5-4.6,2.8-9.7,9.4-14.1c-10.4-1.7-15.7,4.7-18.3,13.8"></path>
		<path class="st0" d="M1197.7,113c-0.2-7.1-3-11.8-6.4-13.6c10.6-0.8,15.8,4.7,16.5,14.8"></path>
		<path class="st0" d="M1213.8,109.1c0.3-3.6,1.3-8.1,6.5-11.3c-5.9-0.1-12.5,3.2-14.3,8.9"></path>
		<path class="st0" d="M1184.2,138.3c2.3-0.5,4.1-2.3,5-3.8c0.9,1.9,2.6,3.2,4.7,4.2"></path>
		<path class="st0" d="M1195.4,122l16,0.2c6.1,0.1,11,5.1,10.9,11.2l-0.3,22c-0.1,6.1-5.1,10.9-11.2,10.9l-16-0.2    c-6.1-0.1-11-5.1-10.9-11.2l0.3-22C1184.3,126.8,1189.4,121.9,1195.4,122L1195.4,122z"></path>
		<path class="st0" d="M1184,151.9c2.7-0.8,4.1-2.3,5-3.8c0.9,1.9,2.6,3.2,4.7,4.2"></path>
		<path class="st0" d="M1212.6,138.5c2.3-0.5,4.1-2.3,5-3.8c0.9,1.9,2.6,3.2,4.7,4.2"></path>
		<path class="st0" d="M1212.4,152c2.7-0.8,4.1-2.3,5-3.8c0.9,1.9,2.6,3.2,4.7,4.2"></path>
		<path class="st0" d="M1198.4,132.8c2.3-0.4,4.1-2.2,5-3.6c0.9,1.8,2.6,3,4.7,3.9"></path>
		<path class="st0" d="M1198.2,145.4c2.7-0.7,4.1-2.2,5-3.6c0.9,1.8,2.6,3,4.7,3.9"></path>
		<path class="st0" d="M1197.9,158.2c2.7-0.7,4.1-2.2,5-3.6c0.9,1.8,2.6,3,4.7,3.9"></path>
	</g>
	<g>
		<path class="st0" d="M1769.5,146.3c-1.4,3.7-3.4,6.4-5.5,8.5"></path>
		<path class="st0" d="M1790.3,112c-1.8,0.9-3.8,1.6-5.8,1.8c-1.1,0.2-2.3,0.2-3.5,0.1c-5.8-0.4-10.7-4.5-12.7-9.4"></path>
		<path class="st0" d="M1784.3,107.4l1.6-5.2c1.4-4.5-5.7-6.3-6.9-1.8l-1.2,4.5"></path>
		<line class="st0" x1="1780.1" y1="121" x2="1781.1" y2="114"></line>
		<line class="st0" x1="1768.2" y1="116.1" x2="1772.1" y2="109.9"></line>
		<path class="st0" d="M1796.1,126.8c11,0.1,19.8,9.2,19.7,20.1s-9.2,19.8-20.2,19.6c-11-0.1-19.8-9.2-19.7-20.1    C1776.1,135.5,1785.1,126.7,1796.1,126.8L1796.1,126.8z"></path>
		<path class="st0" d="M1797.1,126.9c-1-10.7-8.9-20-20.1-22.1c-13.5-2.6-26.2,6.3-29,19.7c-3.9,18.3,14.4,30.1,16.1,30.4    c0.8,0.2,5.7,0.2,12.8-2.2"></path>
		<path class="st0" d="M1796,135.4c1.7,0,3.3,0.4,4.7,1.1c2.1,1,2.5,0.5,4.9,0.1c-0.4,2.1-1,2.7,0.1,4.4c1,1.7,1.6,3.7,1.6,5.9    c-0.1,4.9-3.3,9.1-7.7,10.6c-1.2,0.4-2.4,0.6-3.8,0.6c-6.3-0.1-11.3-5.2-11.2-11.5C1784.6,140.3,1789.8,135.3,1796,135.4    L1796,135.4z"></path>
		<path class="st0" d="M1784.3,107.4c4.4,1.2,6.2-0.2,7.3-2.5c1-2.2,2.9-1.9,5.6-1.6c2.6,0.3,4.1-2,4.7-2.9"></path>
	</g>
	<g>
		<path class="st0" d="M1395,161.2l0.4-32.7l0.1-7.7c0.1-6.2-10.4-6.7-16.4,0.4c-11.1,13.2-4.4,38.4,9.1,44.8    C1393.1,168.2,1395,162.8,1395,161.2L1395,161.2z"></path>
		<path class="st0" d="M1386.8,165.1l-5.2-0.1c-24.5-0.3-27.9-51.5,5.2-48.7"></path>
		<path class="st0" d="M1400.4,116.1l2.2-7.9c2.7-7.9-9.2-10.7-10.7-2.4l-0.1,10.3"></path>
		<path class="st0" d="M1402,110.5c1.4,1.4,3.8,2.6,7.3-1.5c3.5-4,9-9.5,12.6-5.4c3.7,4.1-1.3,10-6.1,5.3"></path>
		<path class="st0" d="M1374.9,118.1c-0.3-4.3-2.2-6.3-5.1-7.8c7.4-0.3,7.1-4,6.1-10.8c4.1,4.8,6,5,7.1,4.7c1.5-0.4,2.2-1.2,3-6.4    c1.2,3.2,3.9,6.9,6.3,6.9"></path>
		<path class="st0" d="M1383.6,109.9c2.5,2.2,3.8,4.2,4,6.3"></path>
		<path class="st0" d="M1395,161.2l0.4-32.7l0.1-7.7c0.1-6.2,10.6-6.4,16.4,0.8c10.8,13.5,3.4,38.5-10.3,44.5    C1396.7,168.2,1395,162.8,1395,161.2L1395,161.2z"></path>
		<path class="st0" d="M1403.2,165.3l5.1,0.1c24.5,0.3,29.2-50.7-3.9-48.8"></path>
	</g>
	<g>
		<path class="st0" d="M1578.5,125.5c-1.6,2.2-4.6,2.9-7.1,1.9c-0.1,7-8.1,11.1-13.8,6.8c-3.8-2.9-4.5-8.3-1.6-12.1    c0.4-0.5,0.8-0.9,1.2-1.3c-1.3-2.8-1-6.2,1-8.8c1.9-2.5,4.8-3.6,7.7-3.4c0.4-2,1.2-3.9,2.5-5.6c4.5-5.9,13-7.1,18.9-2.6    c0.4,0.3,0.8,0.6,1.1,1c3-0.7,6.3-0.1,9.1,2c2.6,1.9,4,5.1,4.3,8"></path>
		<path class="st0" d="M1569.5,132.8c6.1,4.7,6.6,11,6.9,18.8c0.5,6.6,6.5,8,10.1,5.4"></path>
		<path class="st0" d="M1572,110.6c-0.7-6.7,8.5-8.6,11.8-6"></path>
		<path class="st0" d="M1579.6,157.4c1.7-2.1,2.7-8.8,1.6-11.6"></path>
		<path class="st0" d="M1599.2,112.3c5.8-2.7,12.8-0.2,15.5,5.6c0.2,0.4,0.3,0.8,0.5,1.2c2.6,0.6,4.9,2.5,6.2,5.2    c1.3,2.8,1.2,5.8,0,8.2c0.4,0.4,0.7,0.8,1,1.3c0.9,1.9,0.3,4.1-1.4,5.3c0.2,0.3,0.4,0.6,0.5,1c1.7,3.7,0.1,8.2-3.6,9.9    c-3.7,1.7-8.2,0.1-9.9-3.6c-0.5-1.2-0.8-2.4-0.7-3.7c0.1-1,0.3-1.9,0.8-2.8c-2.8,0-5.4-1.6-6.6-4.3c-0.2-0.5-0.4-1-0.5-1.5    c-0.8-0.2-1.5-0.5-2.2-0.9c-0.2,0.1-0.5,0.3-0.7,0.4c-1.6,0.8-3.4,0.6-4.8-0.2c-0.5-0.3-1-0.7-1.3-1.1c-2.9,5.3-10.7,5.2-13.3-0.4    c-1.7-3.7-0.1-8.2,3.6-9.9c0.5-0.2,0.9-0.4,1.4-0.5c0.1-2.7,1.7-5.2,4.3-6.4c2.4-1.1,5.1-0.9,7.2,0.5    C1596.1,114.2,1597.5,113.1,1599.2,112.3L1599.2,112.3z"></path>
		<path class="st0" d="M1588,135.7c2.8,6.1,1.7,11.5-1.3,17.6c-2.5,5,5,9,8.2,5.1c2.3-4.5,7.6-12.1,12.4-14.4"></path>
		<path class="st0" d="M1598.9,119.3c2.8-4.6,8.6-2.9,10.2,0.2"></path>
		<line class="st0" x1="1588.7" y1="159.2" x2="1593.4" y2="150.4"></line>
		<path class="st0" d="M1605.2,139.3c-4-0.1-7.5,3-8.8,4.9c0.5-2.4-0.2-8.7-0.8-10.1"></path>
	</g>
	<g>
		<path class="st0" d="M1019.6,119.9c-4.7-4.3-12.3-5.6-18.2-1.2c-7.8,5.8-21.5,26-25.6,38.2c-3.3,10,0.5,11,9.2,7.4    c12.8-5.3,33.7-20.3,37.6-26.1C1027.3,131.2,1024.7,124.6,1019.6,119.9L1019.6,119.9z"></path>
		<path class="st0" d="M1024.5,127.2l11-9.3c9.6-8.1-4.5-21.4-13-12l-9.5,10.5"></path>
		<line class="st0" x1="1020.2" y1="120.5" x2="1027.1" y2="113.6"></line>
		<path class="st0" d="M1024.3,135c10.6-6.7,13.9-0.3,15.1-0.9c6.5-3.6,4.4-14.9-4-16.2"></path>
		<path class="st0" d="M1004.8,116.9c4.6-5,3.6-12.3,1-15c3.3-6.9,16.7-4.6,16.7,4"></path>
		<path class="st0" d="M1010.1,135.5c3.3,3.2,5.3,4.8,10.2,5.6"></path>
		<path class="st0" d="M992.1,129.6c1.3,4.1,4.1,5.9,6.5,8.1"></path>
		<path class="st0" d="M989.4,152.1c2.2,2.3,3.7,3.9,7.2,6.2"></path>
	</g>
	<g>
		<path class="st0" d="M1681.1,115.5c2,9.1,12.2,15.1,23,20.3c16.4,7.9,14.8,28.8-0.1,30.9c-8.5,1.2-16.3-2.1-24.1-8.4    c-11.2-9.2-20.1-21.8-21.1-36.7"></path>
		<path class="st0" d="M1669.8,115c1.6,4.8,8.1,2.9,6.5-1.7c2.6,4,6.3,2.4,7.3-0.4c1.4-3.9-2.7-7.6-6.9-5.1    c-4.8-6.8-17.2-3.8-17.7,4.4c-7.4,1.8-5.1,10,0,9.2c1.8-0.3,3.7-2.5,3.2-4.4C1664,122.2,1671.4,120.4,1669.8,115L1669.8,115z"></path>
		<path class="st0" d="M1669.1,104l-1.3-4.2c-1.3-3.7-7.9-1.8-6.6,2l1.4,4.1"></path>
		<path class="st0" d="M1685.9,152.3c-11.5-7.4-16.8-18.4-19-24.7"></path>
	</g>
	<g>
		<path class="st0" d="M1312.4,160.7c-4-2.1-4.2-7.2,0.4-9"></path>
		<path class="st0" d="M1283.5,109.1l1.2,2.9l-18.2,9.3l-1.6-4.6c-0.9-2.7,0.2-5.6,2.8-6.7l9.1-3.7    C1279.4,105.2,1282.4,106.5,1283.5,109.1L1283.5,109.1z"></path>
		<path class="st0" d="M1266.4,121.3c1.9,26.9,21.4,48.8,45.1,40.2c0.4-0.2,0.9-0.3,1.3-0.5c5-2.5,4.1-6.2,2.6-7.8    c-0.9-0.9-2.2-1.4-3.6-2.1c-16.1-7.5-24.2-13.5-35.7-34.8"></path>
		<path class="st0" d="M1310.3,150.5c4-0.4,7.9-1.6,11.5-3.8c4.5-2.4,5.8-6.9-1.3-8.8c-16-3.1-29.4-9.2-40.6-23.5"></path>
		<path class="st0" d="M1321.2,138c3-1.2,5.8-2.9,8.3-5.3c3.7-3.5,5.9-9.3-1.2-9.2c-16.5,0.2-25.6-0.5-43.6-11.5"></path>
		<path class="st0" d="M1268.2,109.8l-2-7.1c-0.5-1.7,0.6-3.5,2.4-3.9l3.8-0.9c1.7-0.4,3.5,0.6,3.9,2.4l1.4,5.8"></path>
		<path class="st0" d="M1288.7,147.2c-11.4-9.2-15.8-21.4-17.4-28.3"></path>
		<path class="st0" d="M1321.6,146.8c-3.8-1.8-3.4-6.7-0.4-8.8"></path>
		<path class="st0" d="M1329.2,133c-4.5-0.6-6.2-7.7-2-9.5"></path>
	</g>
	<g>
		<path class="st0" d="M1870.3,156.5c-12.6-3.6-16.7-15.9-16.2-20.4"></path>
		<path class="st0" d="M1866.7,114.2c-3.7,2.5-5.4,8.7-4.6,11c3.6-3.6,7.3-6,11-5.6c-0.3,5.3,0.6,9.7,5.1,12.7    c4.6-2.9,5.7-7.2,5.5-12.5c3.7-0.3,7.3,2.2,10.8,5.9c0.9-2.3-0.7-8.5-4.3-11.1c4.2,0.1,7.2,0.8,10.7,2.3c1,0.5,2,1,3,1.5    c-5-11.4-17.2-13.6-21.2-13.3l0-3c0.1-5.5-8-5.9-8.1-0.1l0,3c-4.1-0.4-16.2,1.5-21.6,12.7c1-0.5,2-1,3-1.4    C1859.4,114.8,1862.5,114.2,1866.7,114.2L1866.7,114.2z"></path>
		<path class="st0" d="M1903.8,118.2c4.1,5.1,6.5,11.6,6.5,18.5c-0.2,16.6-14.8,29.9-32.5,29.7c-26.7-0.4-41.1-29.5-24.8-48.7"></path>
	</g>
	<g>
		<line class="st0" x1="1092.5" y1="120.8" x2="1099.1" y2="120.9"></line>
		<path class="st0" d="M1080.6,134.1c0-3.6,0.4-8.7,4.2-12"></path>
		<path class="st0" d="M1115.4,127.8c-27.5-10-27.9,38.4-5.6,38.7l5.1,0.1l5.1,0.1C1142.2,166.8,1143.1,118.5,1115.4,127.8    L1115.4,127.8C1115.4,127.8,1115.4,127.8,1115.4,127.8L1115.4,127.8z"></path>
		<path class="st0" d="M1116.5,127.3c-2.1-8.5-8.7-14.7-20.3-10.8c0,0,0,0,0,0l0,0c-27.5-10-27.9,38.4-5.6,38.7l4.8,0.1"></path>
		<line class="st0" x1="1112.8" y1="147.2" x2="1112.4" y2="145.1"></line>
		<path class="st0" d="M1100.4,145.1c0-3.6,0.8-8.7,4.6-12"></path>
		<line class="st0" x1="1117.6" y1="147.3" x2="1118" y2="145.2"></line>
		<line class="st0" x1="1096" y1="109.8" x2="1095.8" y2="120.9"></line>
		<path class="st0" d="M1086,101.7c0.8,5.8,3.8,9.6,10,9.5l0-1.2C1096,107.7,1094.7,101.4,1086,101.7L1086,101.7z"></path>
		<path class="st0" d="M1110,97.8c-1.3,8-5.6,13.1-14.1,12.8l0-1.6C1096,105.8,1098.1,97.1,1110,97.8L1110,97.8z"></path>
	</g>
	<g>
		<line class="st0" x1="1492.2" y1="112" x2="1492.1" y2="124.2"></line>
		<path class="st0" d="M1492.1,119.7c-32.8-12-33.3,46-6.7,46.4l6.1,0.1l6.1,0.1C1524.2,166.6,1525.3,108.6,1492.1,119.7    C1492.1,119.7,1492.1,119.7,1492.1,119.7L1492.1,119.7L1492.1,119.7z"></path>
		<path class="st0" d="M1480.6,102.3c0.9,6.8,4.4,11.2,11.6,11.1l0-1.4C1492.3,109.3,1490.7,101.9,1480.6,102.3L1480.6,102.3z"></path>
		<line class="st0" x1="1487.6" y1="124.1" x2="1496.5" y2="124.2"></line>
		<path class="st0" d="M1473.4,140.7c0-4.3,0.5-10.5,5.1-14.4"></path>
		<path class="st0" d="M1508.6,97.8c-1.5,9.4-6.5,15.3-16.3,14.9l0-1.9C1492.3,107.1,1494.7,97,1508.6,97.8L1508.6,97.8z"></path>
	</g>
</g>
</svg>