<svg xmlns="http://www.w3.org/2000/svg" xmlns:xlink="http://www.w3.org/1999/xlink" id="Layer_1" x="0px" y="0px" viewBox="0 0 793 175.9" style="enable-background:new 0 0 793 175.9;" xml:space="preserve">
<style type="text/css">
	.st0{fill:#FFFFFF;}
	.st1{fill:#FF9015;}
	.st2{fill:#009D4F;}
	.st3{fill:#E1251B;}
</style>
<g>
	<g>
		<polygon class="st0" points="248.5,141.7 259.8,141.7 259.8,139 251.9,139 251.9,132.7 258.9,132.7 258.9,130 251.9,130     251.9,124 259.8,124 259.8,121.3 248.5,121.3   "></polygon>
		<path class="st0" d="M279.9,131c0.8-1.1,1.2-2.3,1.2-3.6c0-1.1-0.3-2.2-0.8-3.1c-0.5-0.9-1.4-1.7-2.4-2.2c-1.1-0.5-2.4-0.8-4-0.8    h-7v20.4h3.3v-8.2h2.6l4.7,8.2h4l-5-8.5C278,132.8,279.2,132.1,279.9,131z M270.2,130.9V124h3.7c1.3,0,2.2,0.3,2.8,0.9    c0.6,0.6,0.9,1.4,0.9,2.5c0,1.1-0.3,1.9-1,2.5c-0.6,0.6-1.6,0.9-2.8,0.9H270.2z"></path>
		<path class="st0" d="M309.9,122.1c-1.1-0.5-2.4-0.8-4-0.8h-7v20.4h3.3v-8.3h3.7c1.7,0,3.1-0.3,4.1-0.9c1.1-0.6,1.9-1.3,2.3-2.2    c0.5-0.9,0.7-1.9,0.7-2.9c0-1.1-0.3-2.2-0.8-3.1C311.8,123.4,311,122.6,309.9,122.1z M308.8,129.8c-0.6,0.6-1.6,0.9-2.8,0.9h-3.7    V124h3.7c2.5,0,3.8,1.1,3.8,3.3C309.7,128.4,309.4,129.2,308.8,129.8z"></path>
		<polygon class="st0" points="319.3,141.7 330.6,141.7 330.6,139 322.6,139 322.6,132.7 329.7,132.7 329.7,130 322.6,130     322.6,124 330.6,124 330.6,121.3 319.3,121.3   "></polygon>
		<path class="st0" d="M350.7,131c0.8-1.1,1.2-2.3,1.2-3.6c0-1.1-0.3-2.2-0.8-3.1c-0.5-0.9-1.4-1.7-2.4-2.2c-1.1-0.5-2.4-0.8-4-0.8    h-7v20.4h3.3v-8.2h2.6l4.7,8.2h4l-5-8.5C348.7,132.8,349.9,132.1,350.7,131z M340.9,130.9V124h3.7c1.3,0,2.2,0.3,2.8,0.9    c0.6,0.6,0.9,1.4,0.9,2.5c0,1.1-0.3,1.9-1,2.5c-0.6,0.6-1.6,0.9-2.8,0.9H340.9z"></path>
		<path class="st0" d="M369.8,131.1c-0.9-0.4-2-0.7-3.3-1.1c-1-0.3-1.8-0.5-2.4-0.8c-0.6-0.2-1.1-0.6-1.5-1    c-0.4-0.4-0.6-0.9-0.6-1.5c0-0.9,0.3-1.6,0.9-2.1c0.6-0.5,1.4-0.7,2.3-0.7c1.1,0,1.9,0.3,2.6,0.8c0.6,0.5,1,1.2,1.1,1.9h3.7    c-0.1-1.7-0.8-3.1-2.1-4.1c-1.3-1-2.9-1.5-4.9-1.5c-1.4,0-2.6,0.2-3.7,0.7c-1.1,0.5-1.9,1.1-2.5,2c-0.6,0.9-0.9,1.9-0.9,3.1    c0,1.3,0.3,2.3,0.9,3.1c0.6,0.8,1.3,1.3,2.1,1.7c0.8,0.4,1.9,0.7,3.2,1.1c1.1,0.3,1.9,0.5,2.5,0.8c0.6,0.2,1.1,0.6,1.5,1    c0.4,0.4,0.6,1,0.6,1.7c0,0.9-0.3,1.6-1,2.2c-0.6,0.6-1.5,0.8-2.7,0.8c-1.1,0-2-0.3-2.6-0.9c-0.6-0.6-1-1.3-1-2.2h-3.6    c0,1.2,0.3,2.2,0.9,3.1c0.6,0.9,1.5,1.6,2.6,2c1.1,0.5,2.3,0.7,3.7,0.7c1.4,0,2.7-0.3,3.8-0.8c1.1-0.6,1.9-1.3,2.4-2.2    c0.6-0.9,0.8-1.9,0.8-2.9c0-1.3-0.3-2.3-0.9-3.1C371.4,132,370.6,131.5,369.8,131.1z"></path>
		<path class="st0" d="M394.3,122.4c-1.6-0.9-3.4-1.3-5.3-1.3c-1.9,0-3.6,0.4-5.2,1.3c-1.6,0.9-2.9,2.1-3.8,3.7    c-0.9,1.6-1.4,3.4-1.4,5.4c0,2,0.5,3.8,1.4,5.4c0.9,1.6,2.2,2.8,3.8,3.7c1.6,0.9,3.3,1.3,5.2,1.3c1.9,0,3.7-0.4,5.3-1.3    c1.6-0.9,2.9-2.1,3.8-3.7c0.9-1.6,1.4-3.4,1.4-5.4c0-2-0.5-3.8-1.4-5.4C397.2,124.5,395.9,123.2,394.3,122.4z M395.1,135.4    c-0.6,1.1-1.4,2-2.5,2.6c-1.1,0.6-2.3,0.9-3.6,0.9c-1.4,0-2.6-0.3-3.6-0.9c-1.1-0.6-1.9-1.5-2.5-2.6c-0.6-1.1-0.9-2.5-0.9-4    c0-1.5,0.3-2.8,0.9-4c0.6-1.1,1.4-2,2.5-2.6c1.1-0.6,2.3-0.9,3.6-0.9c1.4,0,2.6,0.3,3.6,0.9c1.1,0.6,1.9,1.5,2.5,2.6    c0.6,1.1,0.9,2.5,0.9,4C396,132.9,395.7,134.3,395.1,135.4z"></path>
		<polygon class="st0" points="419.1,136.5 409,121.3 405.7,121.3 405.7,141.7 409,141.7 409,126.5 419.1,141.7 422.5,141.7     422.5,121.3 419.1,121.3   "></polygon>
		<polygon class="st0" points="433.1,121.3 429.8,121.3 429.8,141.7 440,141.7 440,139 433.1,139   "></polygon>
		<rect x="445.8" y="121.3" class="st0" width="3.3" height="20.4"></rect>
		<path class="st0" d="M464.6,133.2h7.7c-0.3,1.7-0.9,3.1-2.1,4.1c-1.1,1-2.6,1.5-4.4,1.5c-1.4,0-2.6-0.3-3.6-0.9    c-1.1-0.6-1.9-1.5-2.5-2.6c-0.6-1.1-0.9-2.4-0.9-3.9c0-1.5,0.3-2.8,0.9-3.9c0.6-1.1,1.4-2,2.5-2.6c1.1-0.6,2.3-0.9,3.6-0.9    c1.2,0,2.3,0.3,3.3,0.8c0.9,0.5,1.7,1.3,2.2,2.3h4c-0.8-2-2-3.5-3.7-4.5c-1.7-1.1-3.6-1.6-5.8-1.6c-1.9,0-3.6,0.4-5.2,1.3    c-1.6,0.9-2.9,2.1-3.8,3.7c-0.9,1.6-1.4,3.4-1.4,5.4c0,2,0.5,3.8,1.4,5.4c0.9,1.6,2.2,2.8,3.8,3.7c1.6,0.9,3.3,1.3,5.3,1.3    c1.8,0,3.4-0.4,4.9-1.2c1.5-0.8,2.6-1.9,3.6-3.2c0.9-1.3,1.5-2.8,1.7-4.4v-2.6h-11.2V133.2z"></path>
		<path class="st0" d="M488.2,121.3l-7.3,20.4h3.5l1.5-4.2h8.5l1.5,4.2h3.5l-7.3-20.4H488.2z M486.8,134.8l3.3-9.5l3.3,9.5H486.8z"></path>
		<polygon class="st0" points="526.8,137.3 519.6,121.3 516,121.3 516,141.7 519.4,141.7 519.4,127.7 525.6,141.7 527.9,141.7     534.2,127.7 534.2,141.7 537.5,141.7 537.5,121.3 533.9,121.3   "></polygon>
		<path class="st0" d="M551,121.3l-7.3,20.4h3.5l1.5-4.2h8.5l1.5,4.2h3.5l-7.3-20.4H551z M549.5,134.8l3.3-9.5l3.3,9.5H549.5z"></path>
		<polygon class="st0" points="567.2,124 572.6,124 572.6,141.7 576,141.7 576,124 581.4,124 581.4,121.3 567.2,121.3   "></polygon>
		<path class="st0" d="M595.9,133.2h7.7c-0.3,1.7-0.9,3.1-2.1,4.1c-1.1,1-2.6,1.5-4.4,1.5c-1.4,0-2.6-0.3-3.6-0.9    c-1.1-0.6-1.9-1.5-2.5-2.6c-0.6-1.1-0.9-2.4-0.9-3.9c0-1.5,0.3-2.8,0.9-3.9c0.6-1.1,1.4-2,2.5-2.6c1.1-0.6,2.3-0.9,3.6-0.9    c1.2,0,2.3,0.3,3.3,0.8c0.9,0.5,1.7,1.3,2.2,2.3h4c-0.8-2-2-3.5-3.7-4.5c-1.7-1.1-3.6-1.6-5.8-1.6c-1.9,0-3.6,0.4-5.2,1.3    c-1.6,0.9-2.9,2.1-3.8,3.7c-0.9,1.6-1.4,3.4-1.4,5.4c0,2,0.5,3.8,1.4,5.4c0.9,1.6,2.2,2.8,3.8,3.7c1.6,0.9,3.3,1.3,5.3,1.3    c1.8,0,3.4-0.4,4.9-1.2c1.5-0.8,2.6-1.9,3.6-3.2c0.9-1.3,1.5-2.8,1.7-4.4v-2.6h-11.2V133.2z"></path>
		<path class="st0" d="M626.5,131c0.8-1.1,1.2-2.3,1.2-3.6c0-1.1-0.3-2.2-0.8-3.1c-0.5-0.9-1.4-1.7-2.4-2.2c-1.1-0.5-2.4-0.8-4-0.8    h-7v20.4h3.3v-8.2h2.6l4.7,8.2h4l-5-8.5C624.5,132.8,625.7,132.1,626.5,131z M616.7,130.9V124h3.7c1.3,0,2.2,0.3,2.8,0.9    c0.6,0.6,0.9,1.4,0.9,2.5c0,1.1-0.3,1.9-1,2.5c-0.6,0.6-1.6,0.9-2.8,0.9H616.7z"></path>
		<path class="st0" d="M649.4,122.4c-1.6-0.9-3.4-1.3-5.3-1.3c-1.9,0-3.6,0.4-5.2,1.3c-1.6,0.9-2.9,2.1-3.8,3.7    c-0.9,1.6-1.4,3.4-1.4,5.4c0,2,0.5,3.8,1.4,5.4c0.9,1.6,2.2,2.8,3.8,3.7c1.6,0.9,3.3,1.3,5.2,1.3c1.9,0,3.7-0.4,5.3-1.3    c1.6-0.9,2.9-2.1,3.8-3.7c0.9-1.6,1.4-3.4,1.4-5.4c0-2-0.5-3.8-1.4-5.4C652.3,124.5,651,123.2,649.4,122.4z M650.2,135.4    c-0.6,1.1-1.4,2-2.5,2.6c-1.1,0.6-2.3,0.9-3.6,0.9s-2.6-0.3-3.6-0.9c-1.1-0.6-1.9-1.5-2.5-2.6c-0.6-1.1-0.9-2.5-0.9-4    c0-1.5,0.3-2.8,0.9-4c0.6-1.1,1.4-2,2.5-2.6c1.1-0.6,2.3-0.9,3.6-0.9s2.6,0.3,3.6,0.9c1.1,0.6,1.9,1.5,2.5,2.6    c0.6,1.1,0.9,2.5,0.9,4C651.1,132.9,650.8,134.3,650.2,135.4z"></path>
		<path class="st0" d="M671.5,131.1c-0.9-0.4-2-0.7-3.3-1.1c-1-0.3-1.8-0.5-2.4-0.8c-0.6-0.2-1.1-0.6-1.5-1    c-0.4-0.4-0.6-0.9-0.6-1.5c0-0.9,0.3-1.6,0.9-2.1c0.6-0.5,1.4-0.7,2.3-0.7c1.1,0,1.9,0.3,2.6,0.8c0.6,0.5,1,1.2,1.1,1.9h3.7    c-0.1-1.7-0.8-3.1-2.1-4.1c-1.3-1-2.9-1.5-4.9-1.5c-1.4,0-2.6,0.2-3.7,0.7s-1.9,1.1-2.5,2c-0.6,0.9-0.9,1.9-0.9,3.1    c0,1.3,0.3,2.3,0.9,3.1c0.6,0.8,1.3,1.3,2.1,1.7s1.9,0.7,3.2,1.1c1.1,0.3,1.9,0.5,2.5,0.8c0.6,0.2,1.1,0.6,1.5,1    c0.4,0.4,0.6,1,0.6,1.7c0,0.9-0.3,1.6-1,2.2c-0.6,0.6-1.5,0.8-2.7,0.8c-1.1,0-2-0.3-2.6-0.9c-0.6-0.6-1-1.3-1-2.2h-3.6    c0,1.2,0.3,2.2,0.9,3.1s1.5,1.6,2.6,2c1.1,0.5,2.3,0.7,3.7,0.7c1.4,0,2.7-0.3,3.8-0.8c1.1-0.6,1.9-1.3,2.4-2.2    c0.6-0.9,0.8-1.9,0.8-2.9c0-1.3-0.3-2.3-0.9-3.1C673.1,132,672.3,131.5,671.5,131.1z"></path>
		<path class="st0" d="M692.2,131.1c-0.9-0.4-2-0.7-3.3-1.1c-1-0.3-1.8-0.5-2.4-0.8c-0.6-0.2-1.1-0.6-1.5-1    c-0.4-0.4-0.6-0.9-0.6-1.5c0-0.9,0.3-1.6,0.9-2.1c0.6-0.5,1.4-0.7,2.3-0.7c1.1,0,1.9,0.3,2.6,0.8c0.6,0.5,1,1.2,1.1,1.9h3.7    c-0.1-1.7-0.8-3.1-2.1-4.1c-1.3-1-2.9-1.5-4.9-1.5c-1.4,0-2.6,0.2-3.7,0.7s-1.9,1.1-2.5,2c-0.6,0.9-0.9,1.9-0.9,3.1    c0,1.3,0.3,2.3,0.9,3.1c0.6,0.8,1.3,1.3,2.1,1.7c0.8,0.4,1.9,0.7,3.2,1.1c1.1,0.3,1.9,0.5,2.5,0.8c0.6,0.2,1.1,0.6,1.5,1    c0.4,0.4,0.6,1,0.6,1.7c0,0.9-0.3,1.6-1,2.2c-0.6,0.6-1.5,0.8-2.7,0.8c-1.1,0-2-0.3-2.6-0.9c-0.6-0.6-1-1.3-1-2.2H681    c0,1.2,0.3,2.2,0.9,3.1s1.5,1.6,2.6,2c1.1,0.5,2.3,0.7,3.7,0.7c1.4,0,2.7-0.3,3.8-0.8c1.1-0.6,1.9-1.3,2.4-2.2    c0.6-0.9,0.8-1.9,0.8-2.9c0-1.3-0.3-2.3-0.9-3.1C693.7,132,693,131.5,692.2,131.1z"></path>
		<rect x="702.1" y="121.3" class="st0" width="3.3" height="20.4"></rect>
		<path class="st0" d="M723.5,131.1c-0.9-0.4-2-0.7-3.3-1.1c-1-0.3-1.8-0.5-2.4-0.8c-0.6-0.2-1.1-0.6-1.5-1    c-0.4-0.4-0.6-0.9-0.6-1.5c0-0.9,0.3-1.6,0.9-2.1c0.6-0.5,1.4-0.7,2.3-0.7c1.1,0,1.9,0.3,2.6,0.8c0.6,0.5,1,1.2,1.1,1.9h3.7    c-0.1-1.7-0.8-3.1-2.1-4.1c-1.3-1-2.9-1.5-4.9-1.5c-1.4,0-2.6,0.2-3.7,0.7c-1.1,0.5-1.9,1.1-2.5,2c-0.6,0.9-0.9,1.9-0.9,3.1    c0,1.3,0.3,2.3,0.9,3.1c0.6,0.8,1.3,1.3,2.1,1.7s1.9,0.7,3.2,1.1c1.1,0.3,1.9,0.5,2.5,0.8c0.6,0.2,1.1,0.6,1.5,1    c0.4,0.4,0.6,1,0.6,1.7c0,0.9-0.3,1.6-1,2.2c-0.6,0.6-1.5,0.8-2.7,0.8c-1.1,0-2-0.3-2.6-0.9c-0.6-0.6-1-1.3-1-2.2h-3.6    c0,1.2,0.3,2.2,0.9,3.1c0.6,0.9,1.5,1.6,2.6,2c1.1,0.5,2.3,0.7,3.7,0.7c1.4,0,2.7-0.3,3.8-0.8c1.1-0.6,1.9-1.3,2.4-2.2    c0.6-0.9,0.8-1.9,0.8-2.9c0-1.3-0.3-2.3-0.9-3.1C725.1,132,724.4,131.5,723.5,131.1z"></path>
		<polygon class="st0" points="732.4,124 737.9,124 737.9,141.7 741.2,141.7 741.2,124 746.7,124 746.7,121.3 732.4,121.3   "></polygon>
		<polygon class="st0" points="205.6,96.5 219.3,96.5 219.3,80.3 234.7,80.3 234.7,70.1 219.3,70.1 219.3,60.8 237.1,60.8     237.1,50.7 205.6,50.7   "></polygon>
		<path class="st0" d="M279,75.9c0.8-1.4,1.4-2.9,1.6-4.6c0.2-1.7,0.4-3.6,0.4-5.5c0-2.4-0.2-4.6-0.5-6.5c-0.3-1.9-1-3.5-1.9-4.7    c-1-1.3-2.4-2.2-4.2-2.9c-1.9-0.6-4.3-1-7.4-1h-23.4v45.8h13.7V80.8h5c0.1,0,0.3,0,0.4,0l5.1,15.7h14.1l-6.5-17.4    C276.9,78.3,278.1,77.3,279,75.9z M267,68.8c-0.1,0.7-0.4,1.2-0.7,1.6c-0.4,0.4-0.9,0.6-1.6,0.7c-0.7,0.1-1.7,0.2-2.9,0.2h-4.5    V60.6h4.5c1.3,0,2.4,0.1,3.1,0.2c0.8,0.2,1.3,0.4,1.6,0.8c0.3,0.4,0.5,0.9,0.6,1.6c0.1,0.7,0.1,1.6,0.1,2.8    C267.2,67.1,267.2,68.1,267,68.8z"></path>
		<path class="st0" d="M324,90.3c0.6-1.6,1-3.7,1.2-6.1c0.2-2.4,0.2-5.3,0.2-8.6v-25h-13.7v27.4c0,2,0,3.6-0.1,4.7    c-0.1,1.2-0.3,2-0.6,2.6c-0.3,0.6-0.8,0.9-1.5,1.1c-0.7,0.2-1.7,0.2-2.9,0.2c-1.2,0-2.2-0.1-2.9-0.2c-0.7-0.2-1.2-0.5-1.5-1.1    c-0.3-0.6-0.5-1.4-0.5-2.6c-0.1-1.2-0.1-2.7-0.1-4.7V50.7h-13.7v25c0,3.3,0.1,6.1,0.2,8.6c0.2,2.4,0.5,4.4,1.2,6.1    c0.6,1.6,1.6,3,2.9,3.9c1.3,1,3.2,1.7,5.5,2.1c2.3,0.4,5.3,0.7,9,0.7c3.6,0,6.6-0.2,8.9-0.7c2.3-0.4,4.2-1.2,5.5-2.1    C322.4,93.3,323.4,92,324,90.3z"></path>
		<polygon class="st0" points="374.8,50.7 360.1,50.7 349,68.3 347.1,68.3 347.1,50.7 333.4,50.7 333.4,96.5 347.1,96.5 347.1,78.2     349,78.2 359.9,96.5 375,96.5 360.1,72.3   "></polygon>
		<polygon class="st0" points="413.6,50.7 376.2,50.7 376.2,61.3 388.1,61.3 388.1,96.5 401.8,96.5 401.8,61.3 413.6,61.3   "></polygon>
		<path class="st0" d="M440,90.6c-2.4,0-4.5-0.1-6.1-0.3c-1.6-0.2-2.9-0.6-3.8-1.2c-1-0.6-1.7-1.5-2.1-2.8c-0.5-1.2-0.8-2.9-0.9-5    c-0.2-2.1-0.2-4.7-0.2-7.8c0-3.1,0.1-5.8,0.2-7.9c0.2-2.1,0.5-3.7,0.9-5c0.5-1.2,1.2-2.1,2.1-2.8c1-0.6,2.2-1,3.8-1.2    c1.6-0.2,3.6-0.3,6.1-0.3c0.8,0,1.6,0,2.7,0.1c1,0,2.1,0.1,3.2,0.2c1.1,0.1,2.2,0.2,3.3,0.4v-6c-0.9-0.2-2-0.4-3.2-0.6    c-1.2-0.2-2.5-0.3-3.9-0.4c-1.4-0.1-2.7-0.1-4-0.1c-3.3,0-6,0.2-8.3,0.6c-2.2,0.4-4,1.1-5.4,2.2c-1.4,1-2.5,2.4-3.2,4.2    c-0.7,1.8-1.2,4-1.5,6.7c-0.3,2.7-0.4,6-0.4,9.8c0,3.8,0.1,7.1,0.4,9.8c0.3,2.7,0.8,4.9,1.5,6.7c0.7,1.8,1.8,3.1,3.2,4.2    c1.4,1,3.2,1.7,5.4,2.2c2.2,0.4,5,0.6,8.3,0.6c1.2,0,2.5,0,3.9-0.1c1.4-0.1,2.7-0.2,4-0.3c1.3-0.1,2.5-0.3,3.4-0.5V90    c-1.3,0.2-2.8,0.3-4.6,0.5C443.1,90.6,441.5,90.6,440,90.6z"></path>
		<polygon class="st0" points="489.5,90.1 466.5,90.1 466.5,76.6 486.3,76.6 486.3,70.2 466.5,70.2 466.5,57.1 489.5,57.1     489.5,50.7 459,50.7 459,96.5 489.5,96.5   "></polygon>
		<polygon class="st0" points="535.5,96.5 535.5,50.7 528.3,50.7 528.3,82.4 528.1,82.4 507.1,50.7 499.3,50.7 499.3,96.5     506.5,96.5 506.5,63.8 506.8,63.8 528.3,96.5   "></polygon>
		<polygon class="st0" points="578.6,50.7 543.3,50.7 543.3,57.3 557.2,57.3 557.2,96.5 564.7,96.5 564.7,57.3 578.6,57.3   "></polygon>
		<path class="st0" d="M593.9,79.1h11.8c0.4,0,0.8,0,1.2,0l6.8,17.5h8L614.2,78c2-0.7,3.5-1.7,4.5-3.2c1-1.5,1.6-3.1,1.9-4.9    s0.4-3.5,0.4-5c0-2.1-0.2-4-0.5-5.8c-0.3-1.8-0.9-3.3-1.8-4.5c-0.9-1.3-2.2-2.2-4-2.9c-1.8-0.7-4.1-1-7-1h-21.4v45.8h7.5V79.1z     M593.9,57.1h10.9c2,0,3.7,0.1,4.8,0.4s2,0.7,2.6,1.3c0.5,0.6,0.9,1.4,1,2.4c0.2,1,0.2,2.2,0.2,3.7c0,1.4-0.1,2.6-0.2,3.6    c-0.2,1-0.5,1.8-1.1,2.4c-0.6,0.6-1.5,1.1-2.7,1.4c-1.2,0.3-2.8,0.4-4.9,0.4h-10.7V57.1z"></path>
		<path class="st0" d="M669.5,96.5l-16.4-45.8h-9.9l-16.4,45.8h7.6l3.9-11.3h19.3l4,11.3H669.5z M640.6,78.8l7.3-20.8h0.3l7.3,20.8    H640.6z"></path>
		<polygon class="st0" points="704.9,89.9 684.6,89.9 684.6,50.7 677.1,50.7 677.1,96.5 704.9,96.5   "></polygon>
		<polygon class="st0" points="743.5,90.1 720.5,90.1 720.5,76.6 740.3,76.6 740.3,70.2 720.5,70.2 720.5,57.1 743.5,57.1     743.5,50.7 713,50.7 713,96.5 743.5,96.5   "></polygon>
		<polygon class="st0" points="782.3,50.7 782.3,82.4 782.1,82.4 761.1,50.7 753.3,50.7 753.3,96.5 760.5,96.5 760.5,63.8     760.8,63.8 782.3,96.5 789.5,96.5 789.5,50.7   "></polygon>
	</g>
	<g>
		<path class="st1" d="M68.8,151c-14.7-3-27.3-11.6-35.5-24.1c-8.2-12.5-11.1-27.5-8-42.2c1.7-8.3,5.2-15.9,10.2-22.5L19.3,49.5    c-6.9,9-11.8,19.6-14.2,31.1c-4.1,20.1-0.3,40.5,11,57.6c11.2,17.1,28.5,28.8,48.5,33c5.2,1.1,10.5,1.6,15.7,1.6    c1.5,0,3.1-0.1,4.6-0.1l-3.4-20.4C77.3,152.3,73,151.9,68.8,151z"></path>
		<path class="st2" d="M144.2,54c-4.9-7.4-10.9-13.8-17.7-19c6.9-5.1,14.7-9.3,23.7-12.7l-7.3-19.2c-13.9,5.3-25.7,12.3-35.8,21.2    c-3.7-1.4-7.5-2.5-11.4-3.3c-20-4.2-40.5-0.3-57.6,11c-1.4,0.9-2.8,1.9-4.1,2.9l16.9,13.4C59.8,42.8,69.8,40,80,40    c3.8,0,7.7,0.4,11.5,1.2c0.1,0,0.2,0,0.3,0.1C86.4,48.7,81.7,57,77.6,66.3l18.8,8.2c4.2-9.7,9.2-18,15-25.1    c0.1,0.1,0.2,0.1,0.3,0.2c6,4.1,11.2,9.4,15.3,15.6c1.3,1.9,2.4,3.9,3.4,5.9l22-0.6C150.4,64.9,147.7,59.3,144.2,54z"></path>
		<path class="st3" d="M156.6,91.1l-20.4,0.5c0,0-0.2,0.1-0.2,0.1c-22.6,11.5-50.1,9-75.1-9.4L48.2,98.4    c17.3,13.7,37.9,20.4,58.2,20.4c9,0,18-1.3,26.6-4C129,126,121.6,136,111,143c-3,2-6.1,3.6-9.3,4.9l3.4,20.7    c6-2,11.7-4.9,17.2-8.4c20-13.2,31.9-34.2,34.1-56.3C156.8,99.6,156.9,95.4,156.6,91.1z"></path>
	</g>
</g>
</svg>